<?xml version="1.0" encoding="UTF-8" standalone="no"?><!DOCTYPE svg PUBLIC "-//W3C//DTD SVG 1.1//EN" "http://www.w3.org/Graphics/SVG/1.1/DTD/svg11.dtd"><!-- Generated by graphviz version 2.40.1 (20161225.0304)
 --><!-- Title: Alert_Management_Aggregate Pages: 1 --><svg xmlns="http://www.w3.org/2000/svg" xmlns:xlink="http://www.w3.org/1999/xlink" width="328pt" height="289pt" viewBox="0.00 0.00 328.00 288.80">
<g id="graph0" class="graph" transform="scale(1 1) rotate(0) translate(4 284.8)">
<title>Alert_Management_Aggregate</title>
<polygon fill="#ffffff" stroke="transparent" points="-4,4 -4,-284.8 324,-284.8 324,4 -4,4"/>
<!-- AlertService -->
<g id="node1" class="node">
<title>AlertService</title>
<polygon fill="none" stroke="#000000" points="16.5,-254.8 16.5,-276.8 302.5,-276.8 302.5,-254.8 16.5,-254.8"/>
<text text-anchor="start" x="99.4435" y="-262.2" font-family="Times,serif" font-weight="bold" font-size="14.00" fill="#000000">«root» AlertService</text>
<polygon fill="none" stroke="#000000" points="16.5,-198.8 16.5,-254.8 302.5,-254.8 302.5,-198.8 16.5,-198.8"/>
<text text-anchor="start" x="19.5" y="-239.2" font-family="Times,serif" font-size="14.00" fill="#000000">+ notify(engineer: User, message: String)</text>
<text text-anchor="start" x="19.5" y="-222.4" font-family="Times,serif" font-size="14.00" fill="#000000">+ triggerAlert(vulnerability: VulnerabilityRecord)</text>
<text text-anchor="start" x="51.7567" y="-205.6" font-family="Times,serif" font-size="14.00" fill="#000000">+ sendCriticalAlert(severity: Severity)</text>
</g>
<!-- AuditLog -->
<g id="node2" class="node">
<title>AuditLog</title>
<polygon fill="none" stroke="#000000" points="8.5,-116 8.5,-138 143.5,-138 143.5,-116 8.5,-116"/>
<text text-anchor="start" x="19.426" y="-123.4" font-family="Times,serif" font-weight="bold" font-size="14.00" fill="#000000">«entity» AuditLog</text>
<polygon fill="none" stroke="#000000" points="8.5,-43 8.5,-116 143.5,-116 143.5,-43 8.5,-43"/>
<text text-anchor="start" x="11.5" y="-100.4" font-family="Times,serif" font-size="14.00" fill="#000000">- logId: UUID</text>
<text text-anchor="start" x="11.5" y="-83.6" font-family="Times,serif" font-size="14.00" fill="#000000">- eventType: String</text>
<text text-anchor="start" x="11.5" y="-66.8" font-family="Times,serif" font-size="14.00" fill="#000000">- timestamp: DateTime</text>
<text text-anchor="start" x="32.8394" y="-50" font-family="Times,serif" font-size="14.00" fill="#000000">- details: String</text>
<polygon fill="none" stroke="#000000" points="8.5,-4 8.5,-43 143.5,-43 143.5,-4 8.5,-4"/>
<text text-anchor="start" x="11.5" y="-27.4" font-family="Times,serif" font-size="14.00" fill="#000000">+ createLog()</text>
<text text-anchor="start" x="16.9299" y="-10.6" font-family="Times,serif" font-size="14.00" fill="#000000">+ getLogs()</text>
</g>
<!-- AlertService&#45;&gt;AuditLog -->
<g id="edge1" class="edge">
<title>AlertService-&gt;AuditLog</title>
<path fill="none" stroke="#000000" d="M132.2186,-183.6268C125.5752,-170.4351 118.3695,-156.1266 111.3934,-142.274"/>
<polygon fill="none" stroke="#000000" points="132.2518,-183.693 138.5231,-187.2527 137.6493,-194.4107 131.378,-190.851 132.2518,-183.693"/>
<text text-anchor="middle" x="151.4176" y="-164.2" font-family="Times,serif" font-size="14.00" fill="#000000">1..* logs</text>
</g>
<!-- Severity -->
<g id="node3" class="node">
<title>Severity</title>
<polygon fill="none" stroke="#000000" points="177.5,-96 177.5,-118 312.5,-118 312.5,-96 177.5,-96"/>
<text text-anchor="start" x="192.71" y="-103.4" font-family="Times,serif" font-weight="bold" font-size="14.00" fill="#000000">«enum» Severity</text>
<polygon fill="none" stroke="#000000" points="177.5,-23 177.5,-96 312.5,-96 312.5,-23 177.5,-23"/>
<text text-anchor="start" x="180.5" y="-80.4" font-family="Times,serif" font-size="14.00" fill="#000000">+ LOW: Severity</text>
<text text-anchor="start" x="180.5" y="-63.6" font-family="Times,serif" font-size="14.00" fill="#000000">+ MEDIUM: Severity</text>
<text text-anchor="start" x="180.5" y="-46.8" font-family="Times,serif" font-size="14.00" fill="#000000">+ HIGH: Severity</text>
<text text-anchor="start" x="180.0092" y="-30" font-family="Times,serif" font-size="14.00" fill="#000000">+ CRITICAL: Severity</text>
</g>
<!-- AlertService&#45;&gt;Severity -->
<g id="edge2" class="edge">
<title>AlertService-&gt;Severity</title>
<path fill="none" stroke="#000000" d="M181.6109,-194.4107C191.3375,-175.3235 202.9315,-152.5721 213.4996,-131.8337"/>
<polygon fill="#000000" stroke="#000000" points="216.6925,-133.2766 218.1145,-122.7776 210.4557,-130.0983 216.6925,-133.2766"/>
<text text-anchor="middle" x="253.8237" y="-164.2" font-family="Times,serif" font-size="14.00" fill="#000000">references criticality</text>
</g>
</g>
</svg>