<?xml version="1.0" encoding="UTF-8" standalone="no"?><!DOCTYPE svg PUBLIC "-//W3C//DTD SVG 1.1//EN" "http://www.w3.org/Graphics/SVG/1.1/DTD/svg11.dtd"><!-- Generated by graphviz version 2.40.1 (20161225.0304)
 --><!-- Title: Container_Aggregate Pages: 1 --><svg xmlns="http://www.w3.org/2000/svg" xmlns:xlink="http://www.w3.org/1999/xlink" width="443pt" height="530pt" viewBox="0.00 0.00 442.50 529.80">
<g id="graph0" class="graph" transform="scale(1 1) rotate(0) translate(4 525.8)">
<title>Container_Aggregate</title>
<polygon fill="#ffffff" stroke="transparent" points="-4,4 -4,-525.8 438.5,-525.8 438.5,4 -4,4"/>
<!-- Container -->
<g id="node1" class="node">
<title>Container</title>
<polygon fill="none" stroke="#000000" points="8.5,-495.8 8.5,-517.8 161.5,-517.8 161.5,-495.8 8.5,-495.8"/>
<text text-anchor="start" x="32.71" y="-503.2" font-family="Times,serif" font-weight="bold" font-size="14.00" fill="#000000">«root» Container</text>
<polygon fill="none" stroke="#000000" points="8.5,-422.8 8.5,-495.8 161.5,-495.8 161.5,-422.8 8.5,-422.8"/>
<text text-anchor="start" x="11.5" y="-480.2" font-family="Times,serif" font-size="14.00" fill="#000000">- id: UUID</text>
<text text-anchor="start" x="11.5" y="-463.4" font-family="Times,serif" font-size="14.00" fill="#000000">- name: String</text>
<text text-anchor="start" x="11.5" y="-446.6" font-family="Times,serif" font-size="14.00" fill="#000000">- status: Status</text>
<text text-anchor="start" x="11.5" y="-429.8" font-family="Times,serif" font-size="14.00" fill="#000000">- image: String</text>
<polygon fill="none" stroke="#000000" points="8.5,-265.8 8.5,-422.8 161.5,-422.8 161.5,-265.8 8.5,-265.8"/>
<text text-anchor="start" x="11.5" y="-407.2" font-family="Times,serif" font-size="14.00" fill="#000000">+ access()</text>
<text text-anchor="start" x="11.5" y="-390.4" font-family="Times,serif" font-size="14.00" fill="#000000">+ scan()</text>
<text text-anchor="start" x="11.5" y="-373.6" font-family="Times,serif" font-size="14.00" fill="#000000">+ getId(): UUID</text>
<text text-anchor="start" x="11.5" y="-356.8" font-family="Times,serif" font-size="14.00" fill="#000000">+ getName(): String</text>
<text text-anchor="start" x="11.5" y="-340" font-family="Times,serif" font-size="14.00" fill="#000000">+ getStatus(): Status</text>
<text text-anchor="start" x="11.5" y="-323.2" font-family="Times,serif" font-size="14.00" fill="#000000">+ getImage(): String</text>
<text text-anchor="start" x="11.5" y="-306.4" font-family="Times,serif" font-size="14.00" fill="#000000">+ setName(name: String)</text>
<text text-anchor="start" x="11.5" y="-289.6" font-family="Times,serif" font-size="14.00" fill="#000000">+ setStatus(status: Status)</text>
<text text-anchor="start" x="11.4643" y="-272.8" font-family="Times,serif" font-size="14.00" fill="#000000">+ setImage(image: String)</text>
</g>
<!-- ContainerScanRule -->
<g id="node2" class="node">
<title>ContainerScanRule</title>
<polygon fill="none" stroke="#000000" points="72.5,-182.5 72.5,-204.5 323.5,-204.5 323.5,-182.5 72.5,-182.5"/>
<text text-anchor="start" x="96.1437" y="-189.9" font-family="Times,serif" font-weight="bold" font-size="14.00" fill="#000000">«value object» ContainerScanRule</text>
<polygon fill="none" stroke="#000000" points="72.5,-126.5 72.5,-182.5 323.5,-182.5 323.5,-126.5 72.5,-126.5"/>
<text text-anchor="start" x="75.5" y="-166.9" font-family="Times,serif" font-size="14.00" fill="#000000">- ruleId: UUID</text>
<text text-anchor="start" x="75.5" y="-150.1" font-family="Times,serif" font-size="14.00" fill="#000000">- severityThreshold: Severity</text>
<text text-anchor="start" x="77.8422" y="-133.3" font-family="Times,serif" font-size="14.00" fill="#000000">- scanFrequency: Frequency</text>
<polygon fill="none" stroke="#000000" points="72.5,-3.5 72.5,-126.5 323.5,-126.5 323.5,-3.5 72.5,-3.5"/>
<text text-anchor="start" x="75.5" y="-110.9" font-family="Times,serif" font-size="14.00" fill="#000000">+ evaluate()</text>
<text text-anchor="start" x="75.5" y="-94.1" font-family="Times,serif" font-size="14.00" fill="#000000">+ revise()</text>
<text text-anchor="start" x="75.5" y="-77.3" font-family="Times,serif" font-size="14.00" fill="#000000">+ getRuleId(): UUID</text>
<text text-anchor="start" x="75.5" y="-60.5" font-family="Times,serif" font-size="14.00" fill="#000000">+ getSeverityThreshold(): Severity</text>
<text text-anchor="start" x="75.5" y="-43.7" font-family="Times,serif" font-size="14.00" fill="#000000">+ getScanFrequency(): Frequency</text>
<text text-anchor="start" x="75.5" y="-26.9" font-family="Times,serif" font-size="14.00" fill="#000000">+ setSeverityThreshold(severity: Severity)</text>
<text text-anchor="start" x="75.4965" y="-10.1" font-family="Times,serif" font-size="14.00" fill="#000000">+ setScanFrequency(frequency: Frequency)</text>
</g>
<!-- Container&#45;&gt;ContainerScanRule -->
<g id="edge1" class="edge">
<title>Container-&gt;ContainerScanRule</title>
<path fill="none" stroke="#000000" d="M140.2429,-250.075C145.6469,-236.3355 151.0601,-222.5725 156.2848,-209.2888"/>
<polygon fill="none" stroke="#000000" points="140.1024,-250.4324 141.6286,-257.4801 135.71,-261.5997 134.1838,-254.5519 140.1024,-250.4324"/>
<text text-anchor="middle" x="180.5775" y="-231.2" font-family="Times,serif" font-size="14.00" fill="#000000">1..* applies</text>
</g>
<!-- ContainerRuleRepository -->
<g id="node3" class="node">
<title>ContainerRuleRepository</title>
<polygon fill="none" stroke="#000000" points="194.5,-408.8 194.5,-430.8 426.5,-430.8 426.5,-408.8 194.5,-408.8"/>
<text text-anchor="start" x="197.1651" y="-416.2" font-family="Times,serif" font-weight="bold" font-size="14.00" fill="#000000">«repository» ContainerRuleRepository</text>
<polygon fill="none" stroke="#000000" points="194.5,-352.8 194.5,-408.8 426.5,-408.8 426.5,-352.8 194.5,-352.8"/>
<text text-anchor="start" x="197.5" y="-393.2" font-family="Times,serif" font-size="14.00" fill="#000000">+ findById(id: UUID)</text>
<text text-anchor="start" x="197.5" y="-376.4" font-family="Times,serif" font-size="14.00" fill="#000000">+ save(rule: ContainerScanRule)</text>
<text text-anchor="start" x="235.6024" y="-359.6" font-family="Times,serif" font-size="14.00" fill="#000000">+ delete(id: UUID)</text>
</g>
<!-- ContainerRuleRepository&#45;&gt;ContainerScanRule -->
<g id="edge2" class="edge">
<title>ContainerRuleRepository-&gt;ContainerScanRule</title>
<path fill="none" stroke="#000000" d="M289.1438,-337.5022C274.9102,-301.3137 255.741,-252.5764 238.6137,-209.0306"/>
<polygon fill="none" stroke="#000000" points="289.1904,-337.621 295.109,-341.7405 293.5828,-348.7883 287.6642,-344.6688 289.1904,-337.621"/>
<text text-anchor="middle" x="287.2395" y="-231.2" font-family="Times,serif" font-size="14.00" fill="#000000">1..1 manages</text>
</g>
</g>
</svg>