<?xml version="1.0" encoding="UTF-8" standalone="no"?><!DOCTYPE svg PUBLIC "-//W3C//DTD SVG 1.1//EN" "http://www.w3.org/Graphics/SVG/1.1/DTD/svg11.dtd"><!-- Generated by graphviz version 2.40.1 (20161225.0304)
 --><!-- Title: Scanning_Aggregate Pages: 1 --><svg xmlns="http://www.w3.org/2000/svg" xmlns:xlink="http://www.w3.org/1999/xlink" width="759pt" height="1017pt" viewBox="0.00 0.00 759.00 1016.60">
<g id="graph0" class="graph" transform="scale(1 1) rotate(0) translate(4 1012.6)">
<title>Scanning_Aggregate</title>
<polygon fill="#ffffff" stroke="transparent" points="-4,4 -4,-1012.6 755,-1012.6 755,4 -4,4"/>
<!-- ScanningService -->
<g id="node1" class="node">
<title>ScanningService</title>
<polygon fill="none" stroke="#000000" points="83,-982.6 83,-1004.6 307,-1004.6 307,-982.6 83,-982.6"/>
<text text-anchor="start" x="123.2738" y="-990" font-family="Times,serif" font-weight="bold" font-size="14.00" fill="#000000">«root» ScanningService</text>
<polygon fill="none" stroke="#000000" points="83,-926.6 83,-982.6 307,-982.6 307,-926.6 83,-926.6"/>
<text text-anchor="start" x="86" y="-967" font-family="Times,serif" font-size="14.00" fill="#000000">+ scan(container: Container)</text>
<text text-anchor="start" x="86" y="-950.2" font-family="Times,serif" font-size="14.00" fill="#000000">+ scheduleScan(rule: AssessmentRule)</text>
<text text-anchor="start" x="99.7041" y="-933.4" font-family="Times,serif" font-size="14.00" fill="#000000">+ generateReport(task: ScanTask)</text>
</g>
<!-- AssessmentRule -->
<g id="node2" class="node">
<title>AssessmentRule</title>
<polygon fill="none" stroke="#000000" points="8,-548.3 8,-570.3 226,-570.3 226,-548.3 8,-548.3"/>
<text text-anchor="start" x="41.3776" y="-555.7" font-family="Times,serif" font-weight="bold" font-size="14.00" fill="#000000">«entity» AssessmentRule</text>
<polygon fill="none" stroke="#000000" points="8,-492.3 8,-548.3 226,-548.3 226,-492.3 8,-492.3"/>
<text text-anchor="start" x="11" y="-532.7" font-family="Times,serif" font-size="14.00" fill="#000000">- ruleId: UUID</text>
<text text-anchor="start" x="11" y="-515.9" font-family="Times,serif" font-size="14.00" fill="#000000">- criteria: String</text>
<text text-anchor="start" x="11" y="-499.1" font-family="Times,serif" font-size="14.00" fill="#000000">- severityLimit: Severity</text>
<polygon fill="none" stroke="#000000" points="8,-369.3 8,-492.3 226,-492.3 226,-369.3 8,-369.3"/>
<text text-anchor="start" x="11" y="-476.7" font-family="Times,serif" font-size="14.00" fill="#000000">+ evaluateContainer()</text>
<text text-anchor="start" x="11" y="-459.9" font-family="Times,serif" font-size="14.00" fill="#000000">+ reviseRule()</text>
<text text-anchor="start" x="11" y="-443.1" font-family="Times,serif" font-size="14.00" fill="#000000">+ getRuleId(): UUID</text>
<text text-anchor="start" x="11" y="-426.3" font-family="Times,serif" font-size="14.00" fill="#000000">+ getCriteria(): String</text>
<text text-anchor="start" x="11" y="-409.5" font-family="Times,serif" font-size="14.00" fill="#000000">+ getSeverityLimit(): Severity</text>
<text text-anchor="start" x="11" y="-392.7" font-family="Times,serif" font-size="14.00" fill="#000000">+ setCriteria(criteria: String)</text>
<text text-anchor="start" x="10.803" y="-375.9" font-family="Times,serif" font-size="14.00" fill="#000000">+ setSeverityLimit(severity: Severity)</text>
</g>
<!-- ScanningService&#45;&gt;AssessmentRule -->
<g id="edge2" class="edge">
<title>ScanningService-&gt;AssessmentRule</title>
<path fill="none" stroke="#000000" d="M146.4553,-912.0527C145.1753,-909.6047 144.0143,-907.1171 143.0006,-904.6 100.1807,-798.2752 98.9897,-665.399 105.1207,-574.8097"/>
<polygon fill="none" stroke="#000000" points="146.5547,-912.2181 153.0755,-915.2971 152.7413,-922.5005 146.2205,-919.4215 146.5547,-912.2181"/>
<text text-anchor="middle" x="184.9997" y="-892" font-family="Times,serif" font-size="14.00" fill="#000000">1..1 references</text>
</g>
<!-- ScanTask -->
<g id="node3" class="node">
<title>ScanTask</title>
<polygon fill="none" stroke="#000000" points="192,-843.3 192,-865.3 404,-865.3 404,-843.3 192,-843.3"/>
<text text-anchor="start" x="241.4344" y="-850.7" font-family="Times,serif" font-weight="bold" font-size="14.00" fill="#000000">«entity» ScanTask</text>
<polygon fill="none" stroke="#000000" points="192,-753.3 192,-843.3 404,-843.3 404,-753.3 192,-753.3"/>
<text text-anchor="start" x="195" y="-827.7" font-family="Times,serif" font-size="14.00" fill="#000000">- taskId: UUID</text>
<text text-anchor="start" x="195" y="-810.9" font-family="Times,serif" font-size="14.00" fill="#000000">- container: Container</text>
<text text-anchor="start" x="195" y="-794.1" font-family="Times,serif" font-size="14.00" fill="#000000">- startTime: DateTime</text>
<text text-anchor="start" x="195" y="-777.3" font-family="Times,serif" font-size="14.00" fill="#000000">- result: ScanResult</text>
<text text-anchor="start" x="203.1522" y="-760.5" font-family="Times,serif" font-size="14.00" fill="#000000">- status: ScanStatus</text>
<polygon fill="none" stroke="#000000" points="192,-596.3 192,-753.3 404,-753.3 404,-596.3 192,-596.3"/>
<text text-anchor="start" x="195" y="-737.7" font-family="Times,serif" font-size="14.00" fill="#000000">+ execute()</text>
<text text-anchor="start" x="195" y="-720.9" font-family="Times,serif" font-size="14.00" fill="#000000">+ generateReport()</text>
<text text-anchor="start" x="195" y="-704.1" font-family="Times,serif" font-size="14.00" fill="#000000">+ getTaskId(): UUID</text>
<text text-anchor="start" x="195" y="-687.3" font-family="Times,serif" font-size="14.00" fill="#000000">+ getContainer(): Container</text>
<text text-anchor="start" x="195" y="-670.5" font-family="Times,serif" font-size="14.00" fill="#000000">+ getStartTime(): DateTime</text>
<text text-anchor="start" x="195" y="-653.7" font-family="Times,serif" font-size="14.00" fill="#000000">+ getResult(): ScanResult</text>
<text text-anchor="start" x="195" y="-636.9" font-family="Times,serif" font-size="14.00" fill="#000000">+ setContainer(container: Container)</text>
<text text-anchor="start" x="195" y="-620.1" font-family="Times,serif" font-size="14.00" fill="#000000">+ setResult(result: ScanResult)</text>
<text text-anchor="start" x="212.4005" y="-603.3" font-family="Times,serif" font-size="14.00" fill="#000000">+ setStatus(status: ScanStatus)</text>
</g>
<!-- ScanningService&#45;&gt;ScanTask -->
<g id="edge1" class="edge">
<title>ScanningService-&gt;ScanTask</title>
<path fill="none" stroke="#000000" d="M225.6379,-911.4779C226.7968,-909.1664 227.9225,-906.867 229,-904.6 234.2827,-893.4857 239.5175,-881.8525 244.6021,-870.0994"/>
<polygon fill="none" stroke="#000000" points="225.547,-911.6536 226.3392,-918.821 220.0278,-922.3091 219.2356,-915.1416 225.547,-911.6536"/>
<text text-anchor="middle" x="270.4134" y="-892" font-family="Times,serif" font-size="14.00" fill="#000000">1..1 initiates</text>
</g>
<!-- Severity -->
<g id="node6" class="node">
<title>Severity</title>
<polygon fill="none" stroke="#000000" points="52,-76.5 52,-98.5 187,-98.5 187,-76.5 52,-76.5"/>
<text text-anchor="start" x="67.21" y="-83.9" font-family="Times,serif" font-weight="bold" font-size="14.00" fill="#000000">«enum» Severity</text>
<polygon fill="none" stroke="#000000" points="52,-3.5 52,-76.5 187,-76.5 187,-3.5 52,-3.5"/>
<text text-anchor="start" x="55" y="-60.9" font-family="Times,serif" font-size="14.00" fill="#000000">+ LOW: Severity</text>
<text text-anchor="start" x="55" y="-44.1" font-family="Times,serif" font-size="14.00" fill="#000000">+ MEDIUM: Severity</text>
<text text-anchor="start" x="55" y="-27.3" font-family="Times,serif" font-size="14.00" fill="#000000">+ HIGH: Severity</text>
<text text-anchor="start" x="54.5092" y="-10.5" font-family="Times,serif" font-size="14.00" fill="#000000">+ CRITICAL: Severity</text>
</g>
<!-- AssessmentRule&#45;&gt;Severity -->
<g id="edge6" class="edge">
<title>AssessmentRule-&gt;Severity</title>
<path fill="none" stroke="#000000" d="M112.7072,-365.7233C112.5421,-359.6599 112.3993,-353.6518 112.2868,-347.8 110.6461,-262.4824 109.5448,-241.0893 112.2868,-155.8 112.7302,-142.009 113.5025,-127.2082 114.3692,-113.2144"/>
<polygon fill="#000000" stroke="#000000" points="117.8645,-113.3973 115.0136,-103.1933 110.879,-112.948 117.8645,-113.3973"/>
<text text-anchor="middle" x="152.8566" y="-247.6" font-family="Times,serif" font-size="14.00" fill="#000000">limits severity</text>
</g>
<!-- ScanStatus -->
<g id="node4" class="node">
<title>ScanStatus</title>
<polygon fill="none" stroke="#000000" points="209,-276.8 209,-298.8 387,-298.8 387,-276.8 209,-276.8"/>
<text text-anchor="start" x="238.3194" y="-284.2" font-family="Times,serif" font-weight="bold" font-size="14.00" fill="#000000">«enum» ScanStatus</text>
<polygon fill="none" stroke="#000000" points="209,-203.8 209,-276.8 387,-276.8 387,-203.8 209,-203.8"/>
<text text-anchor="start" x="212" y="-261.2" font-family="Times,serif" font-size="14.00" fill="#000000">+ PENDING: ScanStatus</text>
<text text-anchor="start" x="212" y="-244.4" font-family="Times,serif" font-size="14.00" fill="#000000">+ IN_PROGRESS: ScanStatus</text>
<text text-anchor="start" x="212" y="-227.6" font-family="Times,serif" font-size="14.00" fill="#000000">+ COMPLETED: ScanStatus</text>
<text text-anchor="start" x="233.0092" y="-210.8" font-family="Times,serif" font-size="14.00" fill="#000000">+ FAILED: ScanStatus</text>
</g>
<!-- ScanTask&#45;&gt;ScanStatus -->
<g id="edge4" class="edge">
<title>ScanTask-&gt;ScanStatus</title>
<path fill="none" stroke="#000000" d="M298,-580.5668C298,-485.7462 298,-369.2746 298,-303.4921"/>
<polygon fill="none" stroke="#000000" points="298.0001,-580.6087 302,-586.6088 298,-592.6087 294,-586.6087 298.0001,-580.6087"/>
<text text-anchor="middle" x="340.5726" y="-466.1" font-family="Times,serif" font-size="14.00" fill="#000000">indicates status</text>
</g>
<!-- ScanResult -->
<g id="node5" class="node">
<title>ScanResult</title>
<polygon fill="none" stroke="#000000" points="421,-321.8 421,-343.8 743,-343.8 743,-321.8 421,-321.8"/>
<text text-anchor="start" x="503.0799" y="-329.2" font-family="Times,serif" font-weight="bold" font-size="14.00" fill="#000000">«value object» ScanResult</text>
<polygon fill="none" stroke="#000000" points="421,-265.8 421,-321.8 743,-321.8 743,-265.8 421,-265.8"/>
<text text-anchor="start" x="424" y="-306.2" font-family="Times,serif" font-size="14.00" fill="#000000">- vulnerabilitiesFound: List&lt;VulnerabilityRecord&gt;</text>
<text text-anchor="start" x="424" y="-289.4" font-family="Times,serif" font-size="14.00" fill="#000000">- severity: Severity</text>
<text text-anchor="start" x="515.0966" y="-272.6" font-family="Times,serif" font-size="14.00" fill="#000000">- summary: String</text>
<polygon fill="none" stroke="#000000" points="421,-159.8 421,-265.8 743,-265.8 743,-159.8 421,-159.8"/>
<text text-anchor="start" x="424" y="-250.2" font-family="Times,serif" font-size="14.00" fill="#000000">+ analyze()</text>
<text text-anchor="start" x="424" y="-233.4" font-family="Times,serif" font-size="14.00" fill="#000000">+ getVulnerabilitiesFound(): List&lt;VulnerabilityRecord&gt;</text>
<text text-anchor="start" x="424" y="-216.6" font-family="Times,serif" font-size="14.00" fill="#000000">+ getSeverity(): Severity</text>
<text text-anchor="start" x="424" y="-199.8" font-family="Times,serif" font-size="14.00" fill="#000000">+ getSummary(): String</text>
<text text-anchor="start" x="424" y="-183" font-family="Times,serif" font-size="14.00" fill="#000000">+ setSeverity(severity: Severity)</text>
<text text-anchor="start" x="489.7897" y="-166.2" font-family="Times,serif" font-size="14.00" fill="#000000">+ setSummary(summary: String)</text>
</g>
<!-- ScanTask&#45;&gt;ScanResult -->
<g id="edge3" class="edge">
<title>ScanTask-&gt;ScanResult</title>
<path fill="none" stroke="#000000" d="M386.4645,-581.9384C431.6686,-505.6165 485.3526,-414.9776 525.0232,-347.9984"/>
<polygon fill="none" stroke="#000000" points="386.2599,-582.2838 386.6439,-589.4847 380.1446,-592.6087 379.7606,-585.4078 386.2599,-582.2838"/>
<text text-anchor="middle" x="534.5796" y="-466.1" font-family="Times,serif" font-size="14.00" fill="#000000">1..1 has</text>
</g>
<!-- ScanResult&#45;&gt;Severity -->
<g id="edge5" class="edge">
<title>ScanResult-&gt;Severity</title>
<path fill="none" stroke="#000000" d="M412.6928,-159.768C409.781,-158.4202 406.8818,-157.0963 404,-155.8 338.3639,-126.2744 261.6296,-98.5621 204.3281,-79.1343"/>
<polygon fill="#000000" stroke="#000000" points="205.1784,-75.7274 194.5842,-75.847 202.9406,-82.3601 205.1784,-75.7274"/>
<text text-anchor="middle" x="370.0519" y="-125.2" font-family="Times,serif" font-size="14.00" fill="#000000">uses</text>
</g>
</g>
</svg>