<?xml version="1.0" encoding="UTF-8" standalone="no"?><!DOCTYPE svg PUBLIC "-//W3C//DTD SVG 1.1//EN" "http://www.w3.org/Graphics/SVG/1.1/DTD/svg11.dtd"><!-- Generated by graphviz version 2.40.1 (20161225.0304)
 --><!-- Title: System_Aggregates Pages: 1 --><svg xmlns="http://www.w3.org/2000/svg" xmlns:xlink="http://www.w3.org/1999/xlink" width="638pt" height="410pt" viewBox="0.00 0.00 637.50 409.60">
<g id="graph0" class="graph" transform="scale(1 1) rotate(0) translate(4 405.6)">
<title>System_Aggregates</title>
<polygon fill="#ffffff" stroke="transparent" points="-4,4 -4,-405.6 633.5,-405.6 633.5,4 -4,4"/>
<!-- VulnerabilityManagement -->
<g id="node1" class="node">
<title>VulnerabilityManagement</title>
<polygon fill="none" stroke="#000000" points="8,-270.8 8,-292.8 242,-292.8 242,-270.8 8,-270.8"/>
<text text-anchor="start" x="10.5178" y="-278.2" font-family="Times,serif" font-weight="bold" font-size="14.00" fill="#000000">«aggregate» VulnerabilityManagement</text>
<polygon fill="none" stroke="#000000" points="8,-248.8 8,-270.8 242,-270.8 242,-248.8 8,-248.8"/>
<text text-anchor="start" x="11" y="-255.2" font-family="Times,serif" font-size="14.00" fill="#000000">Root: VulnerabilityEntryManager</text>
</g>
<!-- AlertManagement -->
<g id="node4" class="node">
<title>AlertManagement</title>
<polygon fill="none" stroke="#000000" points="205,-130.8 205,-152.8 394,-152.8 394,-130.8 205,-130.8"/>
<text text-anchor="start" x="207.961" y="-138.2" font-family="Times,serif" font-weight="bold" font-size="14.00" fill="#000000">«aggregate» AlertManagement</text>
<polygon fill="none" stroke="#000000" points="205,-108.8 205,-130.8 394,-130.8 394,-108.8 205,-108.8"/>
<text text-anchor="start" x="208" y="-115.2" font-family="Times,serif" font-size="14.00" fill="#000000">Root: AlertService</text>
</g>
<!-- VulnerabilityManagement&#45;&gt;AlertManagement -->
<g id="edge6" class="edge">
<title>VulnerabilityManagement-&gt;AlertManagement</title>
<path fill="none" stroke="#000000" d="M136.5296,-233.1165C144.2803,-213.3746 156.3439,-190.1741 173.9116,-174.8 179.4498,-169.9533 185.5556,-165.6309 192.0007,-161.7775"/>
<polygon fill="none" stroke="#000000" points="136.4682,-233.2848 138.168,-240.2927 132.3529,-244.5571 130.6531,-237.5492 136.4682,-233.2848"/>
<polygon fill="#000000" stroke="#000000" points="193.9242,-164.7133 200.9784,-156.8083 190.5342,-158.5888 193.9242,-164.7133"/>
<text text-anchor="middle" x="231.5442" y="-196.6" font-family="Times,serif" font-size="14.00" fill="#000000">logs critical findings</text>
</g>
<!-- Scanning -->
<g id="node2" class="node">
<title>Scanning</title>
<polygon fill="none" stroke="#000000" points="234,-375.6 234,-397.6 373,-397.6 373,-375.6 234,-375.6"/>
<text text-anchor="start" x="236.8334" y="-383" font-family="Times,serif" font-weight="bold" font-size="14.00" fill="#000000">«aggregate» Scanning</text>
<polygon fill="none" stroke="#000000" points="234,-353.6 234,-375.6 373,-375.6 373,-353.6 234,-353.6"/>
<text text-anchor="start" x="237" y="-360" font-family="Times,serif" font-size="14.00" fill="#000000">Root: ScanningService</text>
</g>
<!-- Scanning&#45;&gt;VulnerabilityManagement -->
<g id="edge1" class="edge">
<title>Scanning-&gt;VulnerabilityManagement</title>
<path fill="none" stroke="#000000" stroke-dasharray="5,2" d="M225.482,-367.9406C177.7975,-361.4459 123.0607,-350.1489 108.2348,-331.6 102.4613,-324.3766 102.3216,-315.3023 104.727,-306.3843"/>
<polygon fill="#000000" stroke="#000000" points="108.0608,-307.4578 108.1899,-296.8637 101.4825,-305.065 108.0608,-307.4578"/>
<text text-anchor="middle" x="199.3826" y="-319" font-family="Times,serif" font-size="14.00" fill="#000000">retrieves vulnerability data from</text>
</g>
<!-- ContainerManagement -->
<g id="node3" class="node">
<title>ContainerManagement</title>
<polygon fill="none" stroke="#000000" points="407,-200.8 407,-222.8 622,-222.8 622,-200.8 407,-200.8"/>
<text text-anchor="start" x="409.7387" y="-208.2" font-family="Times,serif" font-weight="bold" font-size="14.00" fill="#000000">«aggregate» ContainerManagement</text>
<polygon fill="none" stroke="#000000" points="407,-178.8 407,-200.8 622,-200.8 622,-178.8 407,-178.8"/>
<text text-anchor="start" x="410" y="-185.2" font-family="Times,serif" font-size="14.00" fill="#000000">Root: Container</text>
</g>
<!-- Scanning&#45;&gt;ContainerManagement -->
<g id="edge2" class="edge">
<title>Scanning-&gt;ContainerManagement</title>
<path fill="none" stroke="#000000" d="M380.5515,-360.1178C418.611,-348.7041 462.1479,-329.3035 490,-296.8 504.1185,-280.3236 510.1477,-256.7379 512.6329,-237.0682"/>
<polygon fill="#000000" stroke="#000000" points="516.1366,-237.2067 513.6559,-226.9064 509.1718,-236.5055 516.1366,-237.2067"/>
<text text-anchor="middle" x="485.1592" y="-319" font-family="Times,serif" font-size="14.00" fill="#000000">scans</text>
</g>
<!-- Scanning&#45;&gt;AlertManagement -->
<g id="edge3" class="edge">
<title>Scanning-&gt;AlertManagement</title>
<path fill="none" stroke="#000000" d="M302.5719,-349.4021C301.8532,-305.4139 300.4027,-216.6442 299.5886,-166.8202"/>
<polygon fill="#000000" stroke="#000000" points="303.088,-166.751 299.425,-156.8095 296.0889,-166.8654 303.088,-166.751"/>
<text text-anchor="middle" x="393.5516" y="-266.6" font-family="Times,serif" font-size="14.00" fill="#000000">triggers alerts in case of findings</text>
</g>
<!-- UserManagement -->
<g id="node5" class="node">
<title>UserManagement</title>
<polygon fill="none" stroke="#000000" points="332,-26 332,-48 518,-48 518,-26 332,-26"/>
<text text-anchor="start" x="334.6293" y="-33.4" font-family="Times,serif" font-weight="bold" font-size="14.00" fill="#000000">«aggregate» UserManagement</text>
<polygon fill="none" stroke="#000000" points="332,-4 332,-26 518,-26 518,-4 332,-4"/>
<text text-anchor="start" x="335" y="-10.4" font-family="Times,serif" font-size="14.00" fill="#000000">Root: User</text>
</g>
<!-- ContainerManagement&#45;&gt;UserManagement -->
<g id="edge5" class="edge">
<title>ContainerManagement-&gt;UserManagement</title>
<path fill="none" stroke="#000000" d="M515.5113,-174.7735C515.8821,-146.6851 512.7012,-101.723 492,-70 489.381,-65.9866 486.2542,-62.2568 482.8036,-58.8068"/>
<polygon fill="#000000" stroke="#000000" points="485.1118,-56.1756 475.325,-52.1173 480.4449,-61.3929 485.1118,-56.1756"/>
<text text-anchor="middle" x="571.7546" y="-126.6" font-family="Times,serif" font-size="14.00" fill="#000000">access controlled by</text>
</g>
<!-- AlertManagement&#45;&gt;UserManagement -->
<g id="edge4" class="edge">
<title>AlertManagement-&gt;UserManagement</title>
<path fill="none" stroke="#000000" d="M380.0623,-104.6915C388.4999,-99.6847 396.3898,-93.7706 403,-86.8 409.58,-79.8613 414.217,-70.808 417.4754,-61.8157"/>
<polygon fill="#000000" stroke="#000000" points="420.8428,-62.7743 420.4968,-52.1851 414.1638,-60.6789 420.8428,-62.7743"/>
<text text-anchor="middle" x="451.128" y="-74.2" font-family="Times,serif" font-size="14.00" fill="#000000">notifies users</text>
</g>
<!-- UserManagement&#45;&gt;AlertManagement -->
<g id="edge7" class="edge">
<title>UserManagement-&gt;AlertManagement</title>
<path fill="none" stroke="#000000" d="M312.6075,-55.8763C303.0794,-60.2681 295.6936,-65.0078 292.0876,-70 286.9459,-77.1182 285.8451,-85.9782 286.7117,-94.7131"/>
<polygon fill="none" stroke="#000000" points="312.6323,-55.8661 316.633,-49.8665 323.7098,-51.252 319.7091,-57.2515 312.6323,-55.8661"/>
<polygon fill="#000000" stroke="#000000" points="283.3087,-95.5669 288.5087,-104.7978 290.2001,-94.3388 283.3087,-95.5669"/>
<text text-anchor="middle" x="346.4562" y="-74.2" font-family="Times,serif" font-size="14.00" fill="#000000">tracks notifications</text>
</g>
</g>
</svg>