<?xml version="1.0" encoding="UTF-8" standalone="no"?>
<!DOCTYPE svg PUBLIC "-//W3C//DTD SVG 1.1//EN" "http://www.w3.org/Graphics/SVG/1.1/DTD/svg11.dtd">
<!-- Generated by graphviz version 2.40.1 (20161225.0304)
 -->
<!-- Title: System_Aggregates Pages: 1 -->
<svg width="594pt" height="426pt" viewBox="0.00 0.00 593.51 426.40" xmlns="http://www.w3.org/2000/svg" xmlns:xlink="http://www.w3.org/1999/xlink">
<g id="graph0" class="graph" transform="scale(1 1) rotate(0) translate(4 422.4)">
<title>System_Aggregates</title>
<polygon fill="#ffffff" stroke="transparent" points="-4,4 -4,-422.4 589.5092,-422.4 589.5092,4 -4,4"/>
<!-- VulnerabilityManagement -->
<g id="node1" class="node">
<title>VulnerabilityManagement</title>
<polygon fill="none" stroke="#000000" points="8,-270.8 8,-292.8 204,-292.8 204,-270.8 8,-270.8"/>
<text text-anchor="start" x="32.1332" y="-278.2" font-family="Times,serif" font-weight="bold" font-size="14.00" fill="#000000">VulnerabilityManagement</text>
<polygon fill="none" stroke="#000000" points="8,-248.8 8,-270.8 204,-270.8 204,-248.8 8,-248.8"/>
<text text-anchor="start" x="10.94" y="-255.2" font-family="Times,serif" font-size="14.00" fill="#000000">Root: VulnerabilityEntryManager</text>
</g>
<!-- AlertManagement -->
<g id="node4" class="node">
<title>AlertManagement</title>
<polygon fill="none" stroke="#000000" points="202,-130.8 202,-152.8 313,-152.8 313,-130.8 202,-130.8"/>
<text text-anchor="start" x="206.5764" y="-138.2" font-family="Times,serif" font-weight="bold" font-size="14.00" fill="#000000">AlertManagement</text>
<polygon fill="none" stroke="#000000" points="202,-108.8 202,-130.8 313,-130.8 313,-108.8 202,-108.8"/>
<text text-anchor="start" x="204.8208" y="-115.2" font-family="Times,serif" font-size="14.00" fill="#000000">Root: AlertService</text>
</g>
<!-- VulnerabilityManagement&#45;&gt;AlertManagement -->
<g id="edge6" class="edge">
<title>VulnerabilityManagement-&gt;AlertManagement</title>
<path fill="none" stroke="#000000" d="M127.8062,-234.4977C140.6608,-215.155 158.2225,-191.8952 177.798,-174.8 182.813,-170.4204 188.3348,-166.2863 194.0588,-162.436"/>
<polygon fill="none" stroke="#000000" points="127.6775,-234.6968 127.7817,-241.9072 121.166,-244.7765 121.0619,-237.5662 127.6775,-234.6968"/>
<polygon fill="#000000" stroke="#000000" points="196.0157,-165.3391 202.5543,-157.0026 192.2441,-159.442 196.0157,-165.3391"/>
<text text-anchor="middle" x="212.601" y="-205" font-family="Times,serif" font-size="14.00" fill="#000000">logs critical </text>
<text text-anchor="middle" x="212.601" y="-188.2" font-family="Times,serif" font-size="14.00" fill="#000000">findings</text>
</g>
<!-- Scanning -->
<g id="node2" class="node">
<title>Scanning</title>
<polygon fill="none" stroke="#000000" points="194,-392.4 194,-414.4 328,-414.4 328,-392.4 194,-392.4"/>
<text text-anchor="start" x="234.9488" y="-399.8" font-family="Times,serif" font-weight="bold" font-size="14.00" fill="#000000">Scanning</text>
<polygon fill="none" stroke="#000000" points="194,-370.4 194,-392.4 328,-392.4 328,-370.4 194,-370.4"/>
<text text-anchor="start" x="196.6511" y="-376.8" font-family="Times,serif" font-size="14.00" fill="#000000">Root: ScanningService</text>
</g>
<!-- Scanning&#45;&gt;VulnerabilityManagement -->
<g id="edge1" class="edge">
<title>Scanning-&gt;VulnerabilityManagement</title>
<path fill="none" stroke="#000000" stroke-dasharray="5,2" d="M185.5835,-381.7466C146.7639,-374.5554 105.1564,-363.5818 93.4466,-348.4 84.3719,-336.6345 85.2866,-320.8408 89.3352,-306.5732"/>
<polygon fill="#000000" stroke="#000000" points="92.6819,-307.6018 92.5545,-297.0077 86.0475,-305.3689 92.6819,-307.6018"/>
<text text-anchor="middle" x="170.7767" y="-335.8" font-family="Times,serif" font-size="14.00" fill="#000000">retrieves vulnerability data </text>
<text text-anchor="middle" x="170.7767" y="-319" font-family="Times,serif" font-size="14.00" fill="#000000">from</text>
</g>
<!-- ContainerManagement -->
<g id="node3" class="node">
<title>ContainerManagement</title>
<polygon fill="none" stroke="#000000" points="405,-200.8 405,-222.8 539,-222.8 539,-200.8 405,-200.8"/>
<text text-anchor="start" x="407.8541" y="-208.2" font-family="Times,serif" font-weight="bold" font-size="14.00" fill="#000000">ContainerManagement</text>
<polygon fill="none" stroke="#000000" points="405,-178.8 405,-200.8 539,-200.8 539,-178.8 405,-178.8"/>
<text text-anchor="start" x="408" y="-185.2" font-family="Times,serif" font-size="14.00" fill="#000000">Root: Container</text>
</g>
<!-- Scanning&#45;&gt;ContainerManagement -->
<g id="edge2" class="edge">
<title>Scanning-&gt;ContainerManagement</title>
<path fill="none" stroke="#000000" d="M336.4425,-370.5905C375.1143,-355.7295 419.8672,-332.1939 448,-296.8 461.4106,-279.9281 467.441,-256.538 470.1041,-237.07"/>
<polygon fill="#000000" stroke="#000000" points="473.5954,-237.343 471.2369,-227.014 466.6394,-236.5593 473.5954,-237.343"/>
<text text-anchor="middle" x="443.1592" y="-327.4" font-family="Times,serif" font-size="14.00" fill="#000000">scans</text>
</g>
<!-- Scanning&#45;&gt;AlertManagement -->
<g id="edge3" class="edge">
<title>Scanning-&gt;AlertManagement</title>
<path fill="none" stroke="#000000" d="M260.6018,-366.3604C259.8849,-319.4721 258.3754,-220.7514 257.5566,-167.2015"/>
<polygon fill="#000000" stroke="#000000" points="261.0551,-167.0678 257.4025,-157.1225 254.0559,-167.1749 261.0551,-167.0678"/>
<text text-anchor="middle" x="351.5516" y="-266.6" font-family="Times,serif" font-size="14.00" fill="#000000">triggers alerts in case of findings</text>
</g>
<!-- UserManagement -->
<g id="node5" class="node">
<title>UserManagement</title>
<polygon fill="none" stroke="#000000" points="331,-26 331,-48 436,-48 436,-26 331,-26"/>
<text text-anchor="start" x="333.7447" y="-33.4" font-family="Times,serif" font-weight="bold" font-size="14.00" fill="#000000">UserManagement</text>
<polygon fill="none" stroke="#000000" points="331,-4 331,-26 436,-26 436,-4 331,-4"/>
<text text-anchor="start" x="334" y="-10.4" font-family="Times,serif" font-size="14.00" fill="#000000">Root: User</text>
</g>
<!-- ContainerManagement&#45;&gt;UserManagement -->
<g id="edge5" class="edge">
<title>ContainerManagement-&gt;UserManagement</title>
<path fill="none" stroke="#000000" d="M473.2326,-174.787C473.3197,-146.7104 469.7357,-101.7583 449,-70 446.4755,-66.1335 443.48,-62.5251 440.1802,-59.1733"/>
<polygon fill="#000000" stroke="#000000" points="442.2955,-56.3668 432.5351,-52.2455 437.595,-61.5539 442.2955,-56.3668"/>
<text text-anchor="middle" x="528.7546" y="-126.6" font-family="Times,serif" font-size="14.00" fill="#000000">access controlled by</text>
</g>
<!-- AlertManagement&#45;&gt;UserManagement -->
<g id="edge4" class="edge">
<title>AlertManagement-&gt;UserManagement</title>
<path fill="none" stroke="#000000" d="M320.7641,-113.4999C335.4707,-107.0653 350.0055,-98.3939 361,-86.8 367.58,-79.8613 372.217,-70.808 375.4754,-61.8157"/>
<polygon fill="#000000" stroke="#000000" points="378.8428,-62.7743 378.4968,-52.1851 372.1638,-60.6789 378.8428,-62.7743"/>
<text text-anchor="middle" x="408.128" y="-74.2" font-family="Times,serif" font-size="14.00" fill="#000000">notifies users</text>
</g>
<!-- UserManagement&#45;&gt;AlertManagement -->
<g id="edge7" class="edge">
<title>UserManagement-&gt;AlertManagement</title>
<path fill="none" stroke="#000000" d="M310.3972,-41.9961C283.6463,-49.4812 257.9293,-59.1438 250.0876,-70 244.9459,-77.1182 243.8451,-85.9782 244.7117,-94.7131"/>
<polygon fill="none" stroke="#000000" points="310.6932,-41.9171 315.4572,-36.5037 322.2865,-38.8193 317.5224,-44.2326 310.6932,-41.9171"/>
<polygon fill="#000000" stroke="#000000" points="241.3087,-95.5669 246.5087,-104.7978 248.2001,-94.3388 241.3087,-95.5669"/>
<text text-anchor="middle" x="304.4562" y="-74.2" font-family="Times,serif" font-size="14.00" fill="#000000">tracks notifications</text>
</g>
</g>
</svg>