<?xml version="1.0" encoding="UTF-8" standalone="no"?><!DOCTYPE svg PUBLIC "-//W3C//DTD SVG 1.1//EN" "http://www.w3.org/Graphics/SVG/1.1/DTD/svg11.dtd"><!-- Generated by graphviz version 2.40.1 (20161225.0304)
 --><!-- Title: User_Management_Aggregate Pages: 1 --><svg xmlns="http://www.w3.org/2000/svg" xmlns:xlink="http://www.w3.org/1999/xlink" width="338pt" height="322pt" viewBox="0.00 0.00 338.00 321.80">
<g id="graph0" class="graph" transform="scale(1 1) rotate(0) translate(4 317.8)">
<title>User_Management_Aggregate</title>
<polygon fill="#ffffff" stroke="transparent" points="-4,4 -4,-317.8 334,-317.8 334,4 -4,4"/>
<!-- User -->
<g id="node1" class="node">
<title>User</title>
<polygon fill="none" stroke="#000000" points="8,-287.8 8,-309.8 156,-309.8 156,-287.8 8,-287.8"/>
<text text-anchor="start" x="44.1006" y="-295.2" font-family="Times,serif" font-weight="bold" font-size="14.00" fill="#000000">«root» User</text>
<polygon fill="none" stroke="#000000" points="8,-231.8 8,-287.8 156,-287.8 156,-231.8 8,-231.8"/>
<text text-anchor="start" x="11" y="-272.2" font-family="Times,serif" font-size="14.00" fill="#000000">+ id: UUID</text>
<text text-anchor="start" x="11" y="-255.4" font-family="Times,serif" font-size="14.00" fill="#000000">+ name: String</text>
<text text-anchor="start" x="11" y="-238.6" font-family="Times,serif" font-size="14.00" fill="#000000">+ email: String</text>
<polygon fill="none" stroke="#000000" points="8,-125.8 8,-231.8 156,-231.8 156,-125.8 8,-125.8"/>
<text text-anchor="start" x="11" y="-216.2" font-family="Times,serif" font-size="14.00" fill="#000000">+ notify()</text>
<text text-anchor="start" x="11" y="-199.4" font-family="Times,serif" font-size="14.00" fill="#000000">+ getId(): UUID</text>
<text text-anchor="start" x="11" y="-182.6" font-family="Times,serif" font-size="14.00" fill="#000000">+ getName(): String</text>
<text text-anchor="start" x="11" y="-165.8" font-family="Times,serif" font-size="14.00" fill="#000000">+ getEmail(): String</text>
<text text-anchor="start" x="11" y="-149" font-family="Times,serif" font-size="14.00" fill="#000000">+ setName(name: String)</text>
<text text-anchor="start" x="10.7897" y="-132.2" font-family="Times,serif" font-size="14.00" fill="#000000">+ setEmail(email: String)</text>
</g>
<!-- UserPermissions -->
<g id="node3" class="node">
<title>UserPermissions</title>
<polygon fill="none" stroke="#000000" points="105,-42.5 105,-64.5 234,-64.5 234,-42.5 105,-42.5"/>
<text text-anchor="start" x="122.4551" y="-49.9" font-family="Times,serif" font-weight="bold" font-size="14.00" fill="#000000">UserPermissions</text>
<polygon fill="none" stroke="#000000" points="105,-3.5 105,-42.5 234,-42.5 234,-3.5 105,-3.5"/>
<text text-anchor="start" x="108" y="-26.9" font-family="Times,serif" font-size="14.00" fill="#000000">- userId: UUID</text>
<text text-anchor="start" x="107.6858" y="-10.1" font-family="Times,serif" font-size="14.00" fill="#000000">- permissionId: UUID</text>
</g>
<!-- User&#45;&gt;UserPermissions -->
<g id="edge1" class="edge">
<title>User-&gt;UserPermissions</title>
<path fill="none" stroke="#000000" d="M132.8807,-110.5997C139.9923,-95.6163 146.8327,-81.2041 152.6116,-69.0286"/>
<polygon fill="none" stroke="#000000" points="132.8112,-110.7462 133.8521,-117.8818 127.6657,-121.5871 126.6248,-114.4515 132.8112,-110.7462"/>
<text text-anchor="middle" x="165.5796" y="-91.2" font-family="Times,serif" font-size="14.00" fill="#000000">0..* has</text>
</g>
<!-- Permissions -->
<g id="node2" class="node">
<title>Permissions</title>
<polygon fill="none" stroke="#000000" points="190,-234.8 190,-256.8 322,-256.8 322,-234.8 190,-234.8"/>
<text text-anchor="start" x="192.8145" y="-242.2" font-family="Times,serif" font-weight="bold" font-size="14.00" fill="#000000">«entity» Permissions</text>
<polygon fill="none" stroke="#000000" points="190,-178.8 190,-234.8 322,-234.8 322,-178.8 190,-178.8"/>
<text text-anchor="start" x="193" y="-219.2" font-family="Times,serif" font-size="14.00" fill="#000000">- id: UUID</text>
<text text-anchor="start" x="193" y="-202.4" font-family="Times,serif" font-size="14.00" fill="#000000">- name: String</text>
<text text-anchor="start" x="193" y="-185.6" font-family="Times,serif" font-size="14.00" fill="#000000">- description: String</text>
</g>
<!-- Permissions&#45;&gt;UserPermissions -->
<g id="edge2" class="edge">
<title>Permissions-&gt;UserPermissions</title>
<path fill="none" stroke="#000000" d="M230.1963,-163.4343C215.6903,-132.8716 198.0192,-95.6404 185.4024,-69.0581"/>
<polygon fill="none" stroke="#000000" points="230.2367,-163.5196 236.4231,-167.2249 235.3822,-174.3605 229.1958,-170.6552 230.2367,-163.5196"/>
<text text-anchor="middle" x="235.3552" y="-91.2" font-family="Times,serif" font-size="14.00" fill="#000000">1..* provides</text>
</g>
</g>
</svg>