<?xml version="1.0" encoding="UTF-8" standalone="no"?>
<!DOCTYPE svg PUBLIC "-//W3C//DTD SVG 1.1//EN" "http://www.w3.org/Graphics/SVG/1.1/DTD/svg11.dtd">
<!-- Generated by graphviz version 2.40.1 (20161225.0304)
 -->
<!-- Title: EightQueensADT Pages: 1 -->
<svg width="1082pt" height="310pt" viewBox="0.00 0.00 1081.76 310.40" xmlns="http://www.w3.org/2000/svg" xmlns:xlink="http://www.w3.org/1999/xlink">
<g id="graph0" class="graph" transform="scale(1 1) rotate(0) translate(4 306.4)">
<title>EightQueensADT</title>
<polygon fill="#ffffff" stroke="transparent" points="-4,4 -4,-306.4 1077.7581,-306.4 1077.7581,4 -4,4"/>
<!-- Board -->
<g id="node1" class="node">
<title>Board</title>
<polygon fill="none" stroke="#000000" points="638.7909,-302.4 554.7052,-302.4 554.7052,-266.4 638.7909,-266.4 638.7909,-302.4"/>
<text text-anchor="middle" x="596.7481" y="-280.2" font-family="Times,serif" font-size="14.00" fill="#000000">Board Class</text>
</g>
<!-- solve -->
<g id="node2" class="node">
<title>solve</title>
<ellipse fill="none" stroke="#000000" cx="165.7481" cy="-195.6" rx="37.6986" ry="18"/>
<text text-anchor="middle" x="165.7481" y="-191.4" font-family="Times,serif" font-size="14.00" fill="#000000">solve()</text>
</g>
<!-- Board&#45;&gt;solve -->
<g id="edge1" class="edge">
<title>Board-&gt;solve</title>
<path fill="none" stroke="#000000" d="M554.6936,-279.2191C483.4305,-269.8709 334.7858,-247.906 212.7481,-213.6 209.8145,-212.7753 206.808,-211.8413 203.8028,-210.843"/>
<polygon fill="#000000" stroke="#000000" points="204.8946,-207.5169 194.2998,-207.4909 202.5659,-214.1182 204.8946,-207.5169"/>
<text text-anchor="middle" x="371.8" y="-235.8" font-family="Times,serif" font-size="14.00" fill="#000000">uses</text>
</g>
<!-- display_solution -->
<g id="node3" class="node">
<title>display_solution</title>
<ellipse fill="none" stroke="#000000" cx="385.7481" cy="-195.6" rx="163.9838" ry="18"/>
<text text-anchor="middle" x="385.7481" y="-191.4" font-family="Times,serif" font-size="14.00" fill="#000000">display_solution(index, unicode=False)</text>
</g>
<!-- Board&#45;&gt;display_solution -->
<g id="edge2" class="edge">
<title>Board-&gt;display_solution</title>
<path fill="none" stroke="#000000" d="M554.5562,-266.6434C520.5534,-252.3332 472.6277,-232.1636 436.5248,-216.9695"/>
<polygon fill="#000000" stroke="#000000" points="437.7224,-213.6763 427.1478,-213.0232 435.0071,-220.1282 437.7224,-213.6763"/>
<text text-anchor="middle" x="557.9988" y="-235.8" font-family="Times,serif" font-size="14.00" fill="#000000">displays solution</text>
</g>
<!-- display_all_solutions -->
<g id="node4" class="node">
<title>display_all_solutions</title>
<ellipse fill="none" stroke="#000000" cx="723.7481" cy="-195.6" rx="155.8915" ry="18"/>
<text text-anchor="middle" x="723.7481" y="-191.4" font-family="Times,serif" font-size="14.00" fill="#000000">display_all_solutions(unicode=False)</text>
</g>
<!-- Board&#45;&gt;display_all_solutions -->
<g id="edge3" class="edge">
<title>Board-&gt;display_all_solutions</title>
<path fill="none" stroke="#000000" d="M622.7549,-266.2157C642.1445,-252.6582 668.8004,-234.0201 689.8585,-219.296"/>
<polygon fill="#000000" stroke="#000000" points="692.0203,-222.0552 698.21,-213.4565 688.009,-216.3185 692.0203,-222.0552"/>
<text text-anchor="middle" x="730.469" y="-235.8" font-family="Times,serif" font-size="14.00" fill="#000000">displays all solutions</text>
</g>
<!-- solutions_property -->
<g id="node5" class="node">
<title>solutions_property</title>
<ellipse fill="none" stroke="#000000" cx="985.7481" cy="-195.6" rx="88.0202" ry="18"/>
<text text-anchor="middle" x="985.7481" y="-191.4" font-family="Times,serif" font-size="14.00" fill="#000000">solutions (Property)</text>
</g>
<!-- Board&#45;&gt;solutions_property -->
<g id="edge4" class="edge">
<title>Board-&gt;solutions_property</title>
<path fill="none" stroke="#000000" d="M639.0177,-277.7084C678.8574,-271.1485 740.1293,-260.4069 792.7481,-248.4 837.6723,-238.1489 887.8581,-224.3453 925.7917,-213.4229"/>
<polygon fill="#000000" stroke="#000000" points="927.0223,-216.7104 935.6551,-210.5683 925.0763,-209.9863 927.0223,-216.7104"/>
<text text-anchor="middle" x="896.6089" y="-235.8" font-family="Times,serif" font-size="14.00" fill="#000000">solution count</text>
</g>
<!-- place_queens -->
<g id="node7" class="node">
<title>place_queens</title>
<ellipse fill="none" stroke="#000000" stroke-dasharray="5,2" cx="165.7481" cy="-106.8" rx="89.1491" ry="18"/>
<text text-anchor="middle" x="165.7481" y="-102.6" font-family="Times,serif" font-size="14.00" fill="#000000">_place_queens(row)</text>
</g>
<!-- solve&#45;&gt;place_queens -->
<g id="edge5" class="edge">
<title>solve-&gt;place_queens</title>
<path fill="none" stroke="#000000" d="M165.7481,-177.2006C165.7481,-165.0949 165.7481,-149.0076 165.7481,-135.2674"/>
<polygon fill="#000000" stroke="#000000" points="169.2482,-134.872 165.7481,-124.872 162.2482,-134.8721 169.2482,-134.872"/>
<text text-anchor="middle" x="203.2534" y="-147" font-family="Times,serif" font-size="14.00" fill="#000000">recursive call</text>
</g>
<!-- Unicode / Plain -->
<g id="node9" class="node">
<title>Unicode / Plain</title>
<ellipse fill="none" stroke="#000000" cx="495.7481" cy="-106.8" rx="71.2268" ry="18"/>
<text text-anchor="middle" x="495.7481" y="-102.6" font-family="Times,serif" font-size="14.00" fill="#000000">Unicode / Plain</text>
</g>
<!-- display_solution&#45;&gt;Unicode / Plain -->
<g id="edge8" class="edge">
<title>display_solution-&gt;Unicode / Plain</title>
<path fill="none" stroke="#000000" d="M408.0082,-177.63C424.7758,-164.094 447.9264,-145.4051 466.2374,-130.6232"/>
<polygon fill="#000000" stroke="#000000" points="468.6871,-133.1437 474.2696,-124.1389 464.2901,-127.697 468.6871,-133.1437"/>
<text text-anchor="middle" x="491.3768" y="-147" font-family="Times,serif" font-size="14.00" fill="#000000">display format</text>
</g>
<!-- display_all_solutions&#45;&gt;Unicode / Plain -->
<g id="edge9" class="edge">
<title>display_all_solutions-&gt;Unicode / Plain</title>
<path fill="none" stroke="#000000" d="M679.2461,-178.2677C640.456,-163.1599 584.3061,-141.291 544.3511,-125.7296"/>
<polygon fill="#000000" stroke="#000000" points="545.4055,-122.3842 534.8171,-122.0164 542.8651,-128.907 545.4055,-122.3842"/>
<text text-anchor="middle" x="671.3768" y="-147" font-family="Times,serif" font-size="14.00" fill="#000000">display format</text>
</g>
<!-- is_safe -->
<g id="node6" class="node">
<title>is_safe</title>
<ellipse fill="none" stroke="#000000" stroke-dasharray="5,2" cx="80.7481" cy="-18" rx="80.9969" ry="18"/>
<text text-anchor="middle" x="80.7481" y="-13.8" font-family="Times,serif" font-size="14.00" fill="#000000">_is_safe(row, col)</text>
</g>
<!-- place_queens&#45;&gt;is_safe -->
<g id="edge6" class="edge">
<title>place_queens-&gt;is_safe</title>
<path fill="none" stroke="#000000" d="M148.547,-88.83C135.9063,-75.6242 118.571,-57.5138 104.5938,-42.9118"/>
<polygon fill="#000000" stroke="#000000" points="107.0766,-40.444 97.6334,-35.6402 102.0199,-45.2844 107.0766,-40.444"/>
<text text-anchor="middle" x="169.2548" y="-58.2" font-family="Times,serif" font-size="14.00" fill="#000000">checks safety</text>
</g>
<!-- add_solution -->
<g id="node8" class="node">
<title>add_solution</title>
<ellipse fill="none" stroke="#000000" stroke-dasharray="5,2" cx="251.7481" cy="-18" rx="72.3748" ry="18"/>
<text text-anchor="middle" x="251.7481" y="-13.8" font-family="Times,serif" font-size="14.00" fill="#000000">_add_solution()</text>
</g>
<!-- place_queens&#45;&gt;add_solution -->
<g id="edge7" class="edge">
<title>place_queens-&gt;add_solution</title>
<path fill="none" stroke="#000000" d="M190.0001,-89.1093C196.989,-83.5663 204.4273,-77.213 210.7481,-70.8 218.774,-62.6569 226.6945,-52.962 233.4022,-44.1155"/>
<polygon fill="#000000" stroke="#000000" points="236.2927,-46.0932 239.4254,-35.9721 230.6648,-41.9305 236.2927,-46.0932"/>
<text text-anchor="middle" x="265.2155" y="-58.2" font-family="Times,serif" font-size="14.00" fill="#000000">saves solution</text>
</g>
</g>
</svg>