<?xml version="1.0" encoding="UTF-8" standalone="no"?><!DOCTYPE svg PUBLIC "-//W3C//DTD SVG 1.1//EN" "http://www.w3.org/Graphics/SVG/1.1/DTD/svg11.dtd"><!-- Generated by graphviz version 2.40.1 (20161225.0304)
 --><!-- Title: DDD_Class_Model Pages: 1 --><svg xmlns="http://www.w3.org/2000/svg" xmlns:xlink="http://www.w3.org/1999/xlink" width="2003pt" height="1138pt" viewBox="0.00 0.00 2003.00 1138.40">
<g id="graph0" class="graph" transform="scale(1 1) rotate(0) translate(4 1134.4)">
<title>DDD_Class_Model</title>
<polygon fill="#ffffff" stroke="transparent" points="-4,4 -4,-1134.4 1999,-1134.4 1999,4 -4,4"/>
<!-- VulnerabilityDatabase -->
<g id="node1" class="node">
<title>VulnerabilityDatabase</title>
<polygon fill="none" stroke="#000000" points="993,-512.8 993,-534.8 1236,-534.8 1236,-512.8 993,-512.8"/>
<text text-anchor="start" x="1022.1714" y="-520.2" font-family="Times,serif" font-weight="bold" font-size="14.00" fill="#000000">«entity» VulnerabilityDatabase</text>
<polygon fill="none" stroke="#000000" points="993,-439.8 993,-512.8 1236,-512.8 1236,-439.8 993,-439.8"/>
<text text-anchor="start" x="996" y="-497.2" font-family="Times,serif" font-size="14.00" fill="#000000">- id: UUID</text>
<text text-anchor="start" x="996" y="-480.4" font-family="Times,serif" font-size="14.00" fill="#000000">- name: String</text>
<text text-anchor="start" x="996" y="-463.6" font-family="Times,serif" font-size="14.00" fill="#000000">- dateUpdated: Date</text>
<text text-anchor="start" x="996" y="-446.8" font-family="Times,serif" font-size="14.00" fill="#000000">- entries: List&lt;VulnerabilityRecord&gt;</text>
<polygon fill="none" stroke="#000000" points="993,-282.8 993,-439.8 1236,-439.8 1236,-282.8 993,-282.8"/>
<text text-anchor="start" x="996" y="-424.2" font-family="Times,serif" font-size="14.00" fill="#000000">+ addEntry()</text>
<text text-anchor="start" x="996" y="-407.4" font-family="Times,serif" font-size="14.00" fill="#000000">+ deleteEntry()</text>
<text text-anchor="start" x="996" y="-390.6" font-family="Times,serif" font-size="14.00" fill="#000000">+ updateEntry()</text>
<text text-anchor="start" x="996" y="-373.8" font-family="Times,serif" font-size="14.00" fill="#000000">+ getId(): UUID</text>
<text text-anchor="start" x="996" y="-357" font-family="Times,serif" font-size="14.00" fill="#000000">+ getName(): String</text>
<text text-anchor="start" x="996" y="-340.2" font-family="Times,serif" font-size="14.00" fill="#000000">+ getDateUpdated(): Date</text>
<text text-anchor="start" x="996" y="-323.4" font-family="Times,serif" font-size="14.00" fill="#000000">+ getEntries(): List&lt;VulnerabilityRecord&gt;</text>
<text text-anchor="start" x="996" y="-306.6" font-family="Times,serif" font-size="14.00" fill="#000000">+ setName(name: String)</text>
<text text-anchor="start" x="1030.8724" y="-289.8" font-family="Times,serif" font-size="14.00" fill="#000000">+ setDateUpdated(date: Date)</text>
</g>
<!-- VulnerabilityRecord -->
<g id="node2" class="node">
<title>VulnerabilityRecord</title>
<polygon fill="none" stroke="#000000" points="995,-200 995,-222 1234,-222 1234,-200 995,-200"/>
<text text-anchor="start" x="1009.5364" y="-207.4" font-family="Times,serif" font-weight="bold" font-size="14.00" fill="#000000">«value object» VulnerabilityRecord</text>
<polygon fill="none" stroke="#000000" points="995,-127 995,-200 1234,-200 1234,-127 995,-127"/>
<text text-anchor="start" x="998" y="-184.4" font-family="Times,serif" font-size="14.00" fill="#000000">- id: UUID</text>
<text text-anchor="start" x="998" y="-167.6" font-family="Times,serif" font-size="14.00" fill="#000000">- severity: Severity</text>
<text text-anchor="start" x="998" y="-150.8" font-family="Times,serif" font-size="14.00" fill="#000000">- description: String</text>
<text text-anchor="start" x="998" y="-134" font-family="Times,serif" font-size="14.00" fill="#000000">- fixAvailable: Boolean</text>
<polygon fill="none" stroke="#000000" points="995,-4 995,-127 1234,-127 1234,-4 995,-4"/>
<text text-anchor="start" x="998" y="-111.4" font-family="Times,serif" font-size="14.00" fill="#000000">+ getId(): UUID</text>
<text text-anchor="start" x="998" y="-94.6" font-family="Times,serif" font-size="14.00" fill="#000000">+ getSeverity(): Severity</text>
<text text-anchor="start" x="998" y="-77.8" font-family="Times,serif" font-size="14.00" fill="#000000">+ getDescription(): String</text>
<text text-anchor="start" x="998" y="-61" font-family="Times,serif" font-size="14.00" fill="#000000">+ isFixAvailable(): Boolean</text>
<text text-anchor="start" x="998" y="-44.2" font-family="Times,serif" font-size="14.00" fill="#000000">+ setSeverity(severity: Severity)</text>
<text text-anchor="start" x="998" y="-27.4" font-family="Times,serif" font-size="14.00" fill="#000000">+ setDescription(description: String)</text>
<text text-anchor="start" x="997.8093" y="-10.6" font-family="Times,serif" font-size="14.00" fill="#000000">+ setFixAvailable(fixAvailable: Boolean)</text>
</g>
<!-- VulnerabilityDatabase&#45;&gt;VulnerabilityRecord -->
<g id="edge1" class="edge">
<title>VulnerabilityDatabase-&gt;VulnerabilityRecord</title>
<path fill="none" stroke="#000000" d="M1114,-278.6274C1114,-264.5333 1114,-250.2214 1114,-236.2135"/>
<polygon fill="#000000" stroke="#000000" points="1117.5001,-236.0748 1114,-226.0748 1110.5001,-236.0749 1117.5001,-236.0748"/>
<text text-anchor="middle" x="1149.5775" y="-248.2" font-family="Times,serif" font-size="14.00" fill="#000000">1..* contains</text>
</g>
<!-- Container -->
<g id="node3" class="node">
<title>Container</title>
<polygon fill="none" stroke="#000000" points="274,-834.1 274,-856.1 442,-856.1 442,-834.1 274,-834.1"/>
<text text-anchor="start" x="276.7552" y="-841.5" font-family="Times,serif" font-weight="bold" font-size="14.00" fill="#000000">«aggregate root» Container</text>
<polygon fill="none" stroke="#000000" points="274,-761.1 274,-834.1 442,-834.1 442,-761.1 274,-761.1"/>
<text text-anchor="start" x="277" y="-818.5" font-family="Times,serif" font-size="14.00" fill="#000000">- id: UUID</text>
<text text-anchor="start" x="277" y="-801.7" font-family="Times,serif" font-size="14.00" fill="#000000">- name: String</text>
<text text-anchor="start" x="277" y="-784.9" font-family="Times,serif" font-size="14.00" fill="#000000">- status: Status</text>
<text text-anchor="start" x="277" y="-768.1" font-family="Times,serif" font-size="14.00" fill="#000000">- image: String</text>
<polygon fill="none" stroke="#000000" points="274,-604.1 274,-761.1 442,-761.1 442,-604.1 274,-604.1"/>
<text text-anchor="start" x="277" y="-745.5" font-family="Times,serif" font-size="14.00" fill="#000000">+ access()</text>
<text text-anchor="start" x="277" y="-728.7" font-family="Times,serif" font-size="14.00" fill="#000000">+ scan()</text>
<text text-anchor="start" x="277" y="-711.9" font-family="Times,serif" font-size="14.00" fill="#000000">+ getId(): UUID</text>
<text text-anchor="start" x="277" y="-695.1" font-family="Times,serif" font-size="14.00" fill="#000000">+ getName(): String</text>
<text text-anchor="start" x="277" y="-678.3" font-family="Times,serif" font-size="14.00" fill="#000000">+ getStatus(): Status</text>
<text text-anchor="start" x="277" y="-661.5" font-family="Times,serif" font-size="14.00" fill="#000000">+ getImage(): String</text>
<text text-anchor="start" x="277" y="-644.7" font-family="Times,serif" font-size="14.00" fill="#000000">+ setName(name: String)</text>
<text text-anchor="start" x="277" y="-627.9" font-family="Times,serif" font-size="14.00" fill="#000000">+ setStatus(status: Status)</text>
<text text-anchor="start" x="277" y="-611.1" font-family="Times,serif" font-size="14.00" fill="#000000">+ setImage(image: String)</text>
</g>
<!-- ContainerScanRule -->
<g id="node4" class="node">
<title>ContainerScanRule</title>
<polygon fill="none" stroke="#000000" points="233,-486.8 233,-508.8 484,-508.8 484,-486.8 233,-486.8"/>
<text text-anchor="start" x="256.6437" y="-494.2" font-family="Times,serif" font-weight="bold" font-size="14.00" fill="#000000">«value object» ContainerScanRule</text>
<polygon fill="none" stroke="#000000" points="233,-430.8 233,-486.8 484,-486.8 484,-430.8 233,-430.8"/>
<text text-anchor="start" x="236" y="-471.2" font-family="Times,serif" font-size="14.00" fill="#000000">- ruleId: UUID</text>
<text text-anchor="start" x="236" y="-454.4" font-family="Times,serif" font-size="14.00" fill="#000000">- severityThreshold: Severity</text>
<text text-anchor="start" x="238.3422" y="-437.6" font-family="Times,serif" font-size="14.00" fill="#000000">- scanFrequency: Frequency</text>
<polygon fill="none" stroke="#000000" points="233,-307.8 233,-430.8 484,-430.8 484,-307.8 233,-307.8"/>
<text text-anchor="start" x="236" y="-415.2" font-family="Times,serif" font-size="14.00" fill="#000000">+ evaluate()</text>
<text text-anchor="start" x="236" y="-398.4" font-family="Times,serif" font-size="14.00" fill="#000000">+ revise()</text>
<text text-anchor="start" x="236" y="-381.6" font-family="Times,serif" font-size="14.00" fill="#000000">+ getRuleId(): UUID</text>
<text text-anchor="start" x="236" y="-364.8" font-family="Times,serif" font-size="14.00" fill="#000000">+ getSeverityThreshold(): Severity</text>
<text text-anchor="start" x="236" y="-348" font-family="Times,serif" font-size="14.00" fill="#000000">+ getScanFrequency(): Frequency</text>
<text text-anchor="start" x="236" y="-331.2" font-family="Times,serif" font-size="14.00" fill="#000000">+ setSeverityThreshold(severity: Severity)</text>
<text text-anchor="start" x="235.9965" y="-314.4" font-family="Times,serif" font-size="14.00" fill="#000000">+ setScanFrequency(frequency: Frequency)</text>
</g>
<!-- Container&#45;&gt;ContainerScanRule -->
<g id="edge3" class="edge">
<title>Container-&gt;ContainerScanRule</title>
<path fill="none" stroke="#000000" d="M358,-599.8782C358,-574.5753 358,-548.227 358,-523.4697"/>
<polygon fill="#000000" stroke="#000000" points="361.5001,-523.3341 358,-513.3342 354.5001,-523.3342 361.5001,-523.3341"/>
<text text-anchor="middle" x="390.0775" y="-561" font-family="Times,serif" font-size="14.00" fill="#000000">1..* applies</text>
</g>
<!-- ScanTask -->
<g id="node5" class="node">
<title>ScanTask</title>
<polygon fill="none" stroke="#000000" points="594,-842.1 594,-864.1 806,-864.1 806,-842.1 594,-842.1"/>
<text text-anchor="start" x="643.4344" y="-849.5" font-family="Times,serif" font-weight="bold" font-size="14.00" fill="#000000">«entity» ScanTask</text>
<polygon fill="none" stroke="#000000" points="594,-752.1 594,-842.1 806,-842.1 806,-752.1 594,-752.1"/>
<text text-anchor="start" x="597" y="-826.5" font-family="Times,serif" font-size="14.00" fill="#000000">- taskId: UUID</text>
<text text-anchor="start" x="597" y="-809.7" font-family="Times,serif" font-size="14.00" fill="#000000">- container: Container</text>
<text text-anchor="start" x="597" y="-792.9" font-family="Times,serif" font-size="14.00" fill="#000000">- startTime: DateTime</text>
<text text-anchor="start" x="597" y="-776.1" font-family="Times,serif" font-size="14.00" fill="#000000">- result: ScanResult</text>
<text text-anchor="start" x="605.1522" y="-759.3" font-family="Times,serif" font-size="14.00" fill="#000000">- status: ScanStatus</text>
<polygon fill="none" stroke="#000000" points="594,-595.1 594,-752.1 806,-752.1 806,-595.1 594,-595.1"/>
<text text-anchor="start" x="597" y="-736.5" font-family="Times,serif" font-size="14.00" fill="#000000">+ execute()</text>
<text text-anchor="start" x="597" y="-719.7" font-family="Times,serif" font-size="14.00" fill="#000000">+ generateReport()</text>
<text text-anchor="start" x="597" y="-702.9" font-family="Times,serif" font-size="14.00" fill="#000000">+ getTaskId(): UUID</text>
<text text-anchor="start" x="597" y="-686.1" font-family="Times,serif" font-size="14.00" fill="#000000">+ getContainer(): Container</text>
<text text-anchor="start" x="597" y="-669.3" font-family="Times,serif" font-size="14.00" fill="#000000">+ getStartTime(): DateTime</text>
<text text-anchor="start" x="597" y="-652.5" font-family="Times,serif" font-size="14.00" fill="#000000">+ getResult(): ScanResult</text>
<text text-anchor="start" x="597" y="-635.7" font-family="Times,serif" font-size="14.00" fill="#000000">+ setContainer(container: Container)</text>
<text text-anchor="start" x="597" y="-618.9" font-family="Times,serif" font-size="14.00" fill="#000000">+ setResult(result: ScanResult)</text>
<text text-anchor="start" x="614.4005" y="-602.1" font-family="Times,serif" font-size="14.00" fill="#000000">+ setStatus(status: ScanStatus)</text>
</g>
<!-- ScanResult -->
<g id="node7" class="node">
<title>ScanResult</title>
<polygon fill="none" stroke="#000000" points="576,-478.8 576,-500.8 898,-500.8 898,-478.8 576,-478.8"/>
<text text-anchor="start" x="658.0799" y="-486.2" font-family="Times,serif" font-weight="bold" font-size="14.00" fill="#000000">«value object» ScanResult</text>
<polygon fill="none" stroke="#000000" points="576,-422.8 576,-478.8 898,-478.8 898,-422.8 576,-422.8"/>
<text text-anchor="start" x="579" y="-463.2" font-family="Times,serif" font-size="14.00" fill="#000000">- vulnerabilitiesFound: List&lt;VulnerabilityRecord&gt;</text>
<text text-anchor="start" x="579" y="-446.4" font-family="Times,serif" font-size="14.00" fill="#000000">- severity: Severity</text>
<text text-anchor="start" x="670.0966" y="-429.6" font-family="Times,serif" font-size="14.00" fill="#000000">- summary: String</text>
<polygon fill="none" stroke="#000000" points="576,-316.8 576,-422.8 898,-422.8 898,-316.8 576,-316.8"/>
<text text-anchor="start" x="579" y="-407.2" font-family="Times,serif" font-size="14.00" fill="#000000">+ analyze()</text>
<text text-anchor="start" x="579" y="-390.4" font-family="Times,serif" font-size="14.00" fill="#000000">+ getVulnerabilitiesFound(): List&lt;VulnerabilityRecord&gt;</text>
<text text-anchor="start" x="579" y="-373.6" font-family="Times,serif" font-size="14.00" fill="#000000">+ getSeverity(): Severity</text>
<text text-anchor="start" x="579" y="-356.8" font-family="Times,serif" font-size="14.00" fill="#000000">+ getSummary(): String</text>
<text text-anchor="start" x="579" y="-340" font-family="Times,serif" font-size="14.00" fill="#000000">+ setSeverity(severity: Severity)</text>
<text text-anchor="start" x="644.7897" y="-323.2" font-family="Times,serif" font-size="14.00" fill="#000000">+ setSummary(summary: String)</text>
</g>
<!-- ScanTask&#45;&gt;ScanResult -->
<g id="edge4" class="edge">
<title>ScanTask-&gt;ScanResult</title>
<path fill="none" stroke="#000000" d="M715.9598,-591.5086C718.9165,-565.8331 721.9615,-539.3914 724.7848,-514.8743"/>
<polygon fill="#000000" stroke="#000000" points="728.2713,-515.1919 725.9383,-504.8571 721.3172,-514.3911 728.2713,-515.1919"/>
<text text-anchor="middle" x="741.5796" y="-561" font-family="Times,serif" font-size="14.00" fill="#000000">1..1 has</text>
</g>
<!-- ScanStatus -->
<g id="node6" class="node">
<title>ScanStatus</title>
<polygon fill="none" stroke="#000000" points="1557,-1050.9 1557,-1072.9 1735,-1072.9 1735,-1050.9 1557,-1050.9"/>
<text text-anchor="start" x="1586.3194" y="-1058.3" font-family="Times,serif" font-weight="bold" font-size="14.00" fill="#000000">«enum» ScanStatus</text>
<polygon fill="none" stroke="#000000" points="1557,-977.9 1557,-1050.9 1735,-1050.9 1735,-977.9 1557,-977.9"/>
<text text-anchor="start" x="1560" y="-1035.3" font-family="Times,serif" font-size="14.00" fill="#000000">+ PENDING: ScanStatus</text>
<text text-anchor="start" x="1560" y="-1018.5" font-family="Times,serif" font-size="14.00" fill="#000000">+ IN_PROGRESS: ScanStatus</text>
<text text-anchor="start" x="1560" y="-1001.7" font-family="Times,serif" font-size="14.00" fill="#000000">+ COMPLETED: ScanStatus</text>
<text text-anchor="start" x="1581.0092" y="-984.9" font-family="Times,serif" font-size="14.00" fill="#000000">+ FAILED: ScanStatus</text>
</g>
<!-- ScanResult&#45;&gt;VulnerabilityRecord -->
<g id="edge2" class="edge">
<title>ScanResult-&gt;VulnerabilityRecord</title>
<path fill="none" stroke="#000000" d="M859.4011,-312.7622C897.3382,-282.9962 939.3652,-250.0211 978.1574,-219.5842"/>
<polygon fill="#000000" stroke="#000000" points="980.6766,-222.0564 986.3835,-213.1299 976.3556,-216.5492 980.6766,-222.0564"/>
<text text-anchor="middle" x="979.1771" y="-248.2" font-family="Times,serif" font-size="14.00" fill="#000000">1..* aggregates</text>
</g>
<!-- AssessmentRule -->
<g id="node8" class="node">
<title>AssessmentRule</title>
<polygon fill="none" stroke="#000000" points="1769,-1103.9 1769,-1125.9 1987,-1125.9 1987,-1103.9 1769,-1103.9"/>
<text text-anchor="start" x="1802.3776" y="-1111.3" font-family="Times,serif" font-weight="bold" font-size="14.00" fill="#000000">«entity» AssessmentRule</text>
<polygon fill="none" stroke="#000000" points="1769,-1047.9 1769,-1103.9 1987,-1103.9 1987,-1047.9 1769,-1047.9"/>
<text text-anchor="start" x="1772" y="-1088.3" font-family="Times,serif" font-size="14.00" fill="#000000">- ruleId: UUID</text>
<text text-anchor="start" x="1772" y="-1071.5" font-family="Times,serif" font-size="14.00" fill="#000000">- criteria: String</text>
<text text-anchor="start" x="1772" y="-1054.7" font-family="Times,serif" font-size="14.00" fill="#000000">- severityLimit: Severity</text>
<polygon fill="none" stroke="#000000" points="1769,-924.9 1769,-1047.9 1987,-1047.9 1987,-924.9 1769,-924.9"/>
<text text-anchor="start" x="1772" y="-1032.3" font-family="Times,serif" font-size="14.00" fill="#000000">+ evaluateContainer()</text>
<text text-anchor="start" x="1772" y="-1015.5" font-family="Times,serif" font-size="14.00" fill="#000000">+ reviseRule()</text>
<text text-anchor="start" x="1772" y="-998.7" font-family="Times,serif" font-size="14.00" fill="#000000">+ getRuleId(): UUID</text>
<text text-anchor="start" x="1772" y="-981.9" font-family="Times,serif" font-size="14.00" fill="#000000">+ getCriteria(): String</text>
<text text-anchor="start" x="1772" y="-965.1" font-family="Times,serif" font-size="14.00" fill="#000000">+ getSeverityLimit(): Severity</text>
<text text-anchor="start" x="1772" y="-948.3" font-family="Times,serif" font-size="14.00" fill="#000000">+ setCriteria(criteria: String)</text>
<text text-anchor="start" x="1771.803" y="-931.5" font-family="Times,serif" font-size="14.00" fill="#000000">+ setSeverityLimit(severity: Severity)</text>
</g>
<!-- ScanningService -->
<g id="node9" class="node">
<title>ScanningService</title>
<polygon fill="none" stroke="#000000" points="428,-1042.9 428,-1064.9 668,-1064.9 668,-1042.9 428,-1042.9"/>
<text text-anchor="start" x="467.7296" y="-1050.3" font-family="Times,serif" font-weight="bold" font-size="14.00" fill="#000000">«service» ScanningService</text>
<polygon fill="none" stroke="#000000" points="428,-986.9 428,-1042.9 668,-1042.9 668,-986.9 428,-986.9"/>
<text text-anchor="start" x="431" y="-1027.3" font-family="Times,serif" font-size="14.00" fill="#000000">+ scan(container: Container)</text>
<text text-anchor="start" x="431" y="-1010.5" font-family="Times,serif" font-size="14.00" fill="#000000">+ scheduleScan(rule: ContainerScanRule)</text>
<text text-anchor="start" x="452.7041" y="-993.7" font-family="Times,serif" font-size="14.00" fill="#000000">+ generateReport(task: ScanTask)</text>
</g>
<!-- ScanningService&#45;&gt;Container -->
<g id="edge5" class="edge">
<title>ScanningService-&gt;Container</title>
<path fill="none" stroke="#000000" d="M481.587,-982.6393C454.1784,-961.7082 424.3099,-934.3875 404.7356,-903.4 398.1041,-892.9019 392.4047,-881.4732 387.508,-869.6579"/>
<polygon fill="#000000" stroke="#000000" points="390.6694,-868.1334 383.7505,-860.1098 384.1556,-870.6969 390.6694,-868.1334"/>
<text text-anchor="middle" x="438.6322" y="-890.8" font-family="Times,serif" font-size="14.00" fill="#000000">1..1 handles</text>
</g>
<!-- ScanningService&#45;&gt;ContainerScanRule -->
<g id="edge7" class="edge">
<title>ScanningService-&gt;ContainerScanRule</title>
<path fill="none" stroke="#000000" d="M530.937,-982.8245C519.191,-951.5771 504.1173,-908.0488 495.0006,-868.6 467.047,-747.6415 497.6995,-709.5606 459,-591.6 451.4006,-568.4361 440.826,-544.8302 429.3632,-522.6122"/>
<polygon fill="#000000" stroke="#000000" points="432.331,-520.7358 424.5801,-513.5126 426.1348,-523.9928 432.331,-520.7358"/>
<text text-anchor="middle" x="536.9997" y="-725.9" font-family="Times,serif" font-size="14.00" fill="#000000">1..1 references</text>
</g>
<!-- ScanningService&#45;&gt;ScanTask -->
<g id="edge6" class="edge">
<title>ScanningService-&gt;ScanTask</title>
<path fill="none" stroke="#000000" d="M570.1021,-982.8881C584.5089,-954.8517 604.2395,-916.455 623.9725,-878.0535"/>
<polygon fill="#000000" stroke="#000000" points="627.2582,-879.3171 628.7157,-868.823 621.0321,-876.1177 627.2582,-879.3171"/>
<text text-anchor="middle" x="654.4134" y="-890.8" font-family="Times,serif" font-size="14.00" fill="#000000">1..1 initiates</text>
</g>
<!-- VulnerabilityDatabaseRepository -->
<g id="node12" class="node">
<title>VulnerabilityDatabaseRepository</title>
<polygon fill="none" stroke="#000000" points="840,-747.1 840,-769.1 1116,-769.1 1116,-747.1 840,-747.1"/>
<text text-anchor="start" x="842.515" y="-754.5" font-family="Times,serif" font-weight="bold" font-size="14.00" fill="#000000">«repository» VulnerabilityDatabaseRepository</text>
<polygon fill="none" stroke="#000000" points="840,-691.1 840,-747.1 1116,-747.1 1116,-691.1 840,-691.1"/>
<text text-anchor="start" x="843" y="-731.5" font-family="Times,serif" font-size="14.00" fill="#000000">+ findById(id: UUID)</text>
<text text-anchor="start" x="843" y="-714.7" font-family="Times,serif" font-size="14.00" fill="#000000">+ save(database: VulnerabilityDatabase)</text>
<text text-anchor="start" x="902.8605" y="-697.9" font-family="Times,serif" font-size="14.00" fill="#000000">+ delete(id: UUID)</text>
</g>
<!-- ScanningService&#45;&gt;VulnerabilityDatabaseRepository -->
<g id="edge17" class="edge">
<title>ScanningService-&gt;VulnerabilityDatabaseRepository</title>
<path fill="none" stroke="#000000" stroke-dasharray="5,2" d="M633.8574,-982.7886C689.5778,-953.379 762.7585,-912.0091 823,-868.6 859.8206,-842.0676 897.8711,-808.179 927.0571,-780.5649"/>
<polygon fill="#000000" stroke="#000000" points="929.8344,-782.7532 934.6618,-773.3221 925.0067,-777.6843 929.8344,-782.7532"/>
</g>
<!-- AlertService -->
<g id="node10" class="node">
<title>AlertService</title>
<polygon fill="none" stroke="#000000" points="1237,-1042.9 1237,-1064.9 1523,-1064.9 1523,-1042.9 1237,-1042.9"/>
<text text-anchor="start" x="1311.3993" y="-1050.3" font-family="Times,serif" font-weight="bold" font-size="14.00" fill="#000000">«service» AlertService</text>
<polygon fill="none" stroke="#000000" points="1237,-986.9 1237,-1042.9 1523,-1042.9 1523,-986.9 1237,-986.9"/>
<text text-anchor="start" x="1240" y="-1027.3" font-family="Times,serif" font-size="14.00" fill="#000000">+ notify(engineer: Person, message: String)</text>
<text text-anchor="start" x="1240" y="-1010.5" font-family="Times,serif" font-size="14.00" fill="#000000">+ triggerAlert(vulnerability: VulnerabilityRecord)</text>
<text text-anchor="start" x="1272.2567" y="-993.7" font-family="Times,serif" font-size="14.00" fill="#000000">+ sendCriticalAlert(severity: Severity)</text>
</g>
<!-- AlertService&#45;&gt;VulnerabilityRecord -->
<g id="edge8" class="edge">
<title>AlertService-&gt;VulnerabilityRecord</title>
<path fill="none" stroke="#000000" d="M1369.9727,-982.6322C1362.8318,-951.1072 1353.2543,-907.3213 1346,-868.6 1297.1206,-607.6976 1361.7675,-520.4824 1252,-278.8 1245.1386,-263.6927 1236.5188,-248.8485 1226.9547,-234.6289"/>
<polygon fill="#000000" stroke="#000000" points="1229.7852,-232.5683 1221.2206,-226.3315 1224.0265,-236.548 1229.7852,-232.5683"/>
<text text-anchor="middle" x="1355.6308" y="-561" font-family="Times,serif" font-size="14.00" fill="#000000">1..1 triggers</text>
</g>
<!-- AuditLog -->
<g id="node11" class="node">
<title>AuditLog</title>
<polygon fill="none" stroke="#000000" points="1151,-775.1 1151,-797.1 1286,-797.1 1286,-775.1 1151,-775.1"/>
<text text-anchor="start" x="1161.926" y="-782.5" font-family="Times,serif" font-weight="bold" font-size="14.00" fill="#000000">«entity» AuditLog</text>
<polygon fill="none" stroke="#000000" points="1151,-702.1 1151,-775.1 1286,-775.1 1286,-702.1 1151,-702.1"/>
<text text-anchor="start" x="1154" y="-759.5" font-family="Times,serif" font-size="14.00" fill="#000000">- logId: UUID</text>
<text text-anchor="start" x="1154" y="-742.7" font-family="Times,serif" font-size="14.00" fill="#000000">- eventType: String</text>
<text text-anchor="start" x="1154" y="-725.9" font-family="Times,serif" font-size="14.00" fill="#000000">- timestamp: DateTime</text>
<text text-anchor="start" x="1175.3394" y="-709.1" font-family="Times,serif" font-size="14.00" fill="#000000">- details: String</text>
<polygon fill="none" stroke="#000000" points="1151,-663.1 1151,-702.1 1286,-702.1 1286,-663.1 1151,-663.1"/>
<text text-anchor="start" x="1154" y="-686.5" font-family="Times,serif" font-size="14.00" fill="#000000">+ createLog()</text>
<text text-anchor="start" x="1159.4299" y="-669.7" font-family="Times,serif" font-size="14.00" fill="#000000">+ getLogs()</text>
</g>
<!-- AlertService&#45;&gt;AuditLog -->
<g id="edge18" class="edge">
<title>AlertService-&gt;AuditLog</title>
<path fill="none" stroke="#000000" d="M1326.3979,-982.8587C1302.8571,-961.3178 1276.8359,-933.4478 1260.1648,-903.4 1244.5761,-875.303 1234.6971,-841.5096 1228.4603,-811.2544"/>
<polygon fill="#000000" stroke="#000000" points="1231.837,-810.2847 1226.4819,-801.1429 1224.9673,-811.6289 1231.837,-810.2847"/>
<text text-anchor="middle" x="1284.9176" y="-890.8" font-family="Times,serif" font-size="14.00" fill="#000000">1..* logs</text>
</g>
<!-- Person -->
<g id="node14" class="node">
<title>Person</title>
<polygon fill="none" stroke="#000000" points="1364,-800.1 1364,-822.1 1513,-822.1 1513,-800.1 1364,-800.1"/>
<text text-anchor="start" x="1366.5799" y="-807.5" font-family="Times,serif" font-weight="bold" font-size="14.00" fill="#000000">«abstract entity» Person</text>
<polygon fill="none" stroke="#000000" points="1364,-744.1 1364,-800.1 1513,-800.1 1513,-744.1 1364,-744.1"/>
<text text-anchor="start" x="1367" y="-784.5" font-family="Times,serif" font-size="14.00" fill="#000000">+ id: UUID</text>
<text text-anchor="start" x="1367" y="-767.7" font-family="Times,serif" font-size="14.00" fill="#000000">+ name: String</text>
<text text-anchor="start" x="1367" y="-750.9" font-family="Times,serif" font-size="14.00" fill="#000000">+ email: String</text>
<polygon fill="none" stroke="#000000" points="1364,-638.1 1364,-744.1 1513,-744.1 1513,-638.1 1364,-638.1"/>
<text text-anchor="start" x="1367" y="-728.5" font-family="Times,serif" font-size="14.00" fill="#000000">+ notify()</text>
<text text-anchor="start" x="1367" y="-711.7" font-family="Times,serif" font-size="14.00" fill="#000000">+ getId(): UUID</text>
<text text-anchor="start" x="1367" y="-694.9" font-family="Times,serif" font-size="14.00" fill="#000000">+ getName(): String</text>
<text text-anchor="start" x="1367" y="-678.1" font-family="Times,serif" font-size="14.00" fill="#000000">+ getEmail(): String</text>
<text text-anchor="start" x="1367" y="-661.3" font-family="Times,serif" font-size="14.00" fill="#000000">+ setName(name: String)</text>
<text text-anchor="start" x="1367" y="-644.5" font-family="Times,serif" font-size="14.00" fill="#000000">+ setEmail(email: String)</text>
</g>
<!-- AlertService&#45;&gt;Person -->
<g id="edge9" class="edge">
<title>AlertService-&gt;Person</title>
<path fill="none" stroke="#000000" d="M1388.4337,-982.8881C1395.9446,-944.5824 1407.2477,-886.9368 1417.1641,-836.3628"/>
<polygon fill="#000000" stroke="#000000" points="1420.6378,-836.8368 1419.1274,-826.3502 1413.7686,-835.4898 1420.6378,-836.8368"/>
<text text-anchor="middle" x="1441.2458" y="-890.8" font-family="Times,serif" font-size="14.00" fill="#000000">0..* notifies</text>
</g>
<!-- Severity -->
<g id="node18" class="node">
<title>Severity</title>
<polygon fill="none" stroke="#000000" points="1547,-755.1 1547,-777.1 1682,-777.1 1682,-755.1 1547,-755.1"/>
<text text-anchor="start" x="1562.21" y="-762.5" font-family="Times,serif" font-weight="bold" font-size="14.00" fill="#000000">«enum» Severity</text>
<polygon fill="none" stroke="#000000" points="1547,-682.1 1547,-755.1 1682,-755.1 1682,-682.1 1547,-682.1"/>
<text text-anchor="start" x="1550" y="-739.5" font-family="Times,serif" font-size="14.00" fill="#000000">+ LOW: Severity</text>
<text text-anchor="start" x="1550" y="-722.7" font-family="Times,serif" font-size="14.00" fill="#000000">+ MEDIUM: Severity</text>
<text text-anchor="start" x="1550" y="-705.9" font-family="Times,serif" font-size="14.00" fill="#000000">+ HIGH: Severity</text>
<text text-anchor="start" x="1549.5092" y="-689.1" font-family="Times,serif" font-size="14.00" fill="#000000">+ CRITICAL: Severity</text>
</g>
<!-- AlertService&#45;&gt;Severity -->
<g id="edge10" class="edge">
<title>AlertService-&gt;Severity</title>
<path fill="none" stroke="#000000" d="M1425.6486,-982.6999C1456.5752,-952.2784 1497.4044,-909.7865 1529,-868.6 1547.7401,-844.1712 1565.9496,-815.4006 1580.6752,-790.4294"/>
<polygon fill="#000000" stroke="#000000" points="1583.7125,-792.1689 1585.7337,-781.7686 1577.6679,-788.6385 1583.7125,-792.1689"/>
<text text-anchor="middle" x="1554.074" y="-890.8" font-family="Times,serif" font-size="14.00" fill="#000000">1..* criticality</text>
</g>
<!-- AuditLog&#45;&gt;VulnerabilityDatabase -->
<g id="edge16" class="edge">
<title>AuditLog-&gt;VulnerabilityDatabase</title>
<path fill="none" stroke="#000000" d="M1194.919,-658.7931C1184.4097,-626.3253 1171.5896,-586.7188 1159.2805,-548.6905"/>
<polygon fill="#000000" stroke="#000000" points="1162.5733,-547.4978 1156.1637,-539.0616 1155.9134,-549.6535 1162.5733,-547.4978"/>
<text text-anchor="middle" x="1189.9176" y="-561" font-family="Times,serif" font-size="14.00" fill="#000000">1..* logs</text>
</g>
<!-- VulnerabilityDatabaseRepository&#45;&gt;VulnerabilityDatabase -->
<g id="edge11" class="edge">
<title>VulnerabilityDatabaseRepository-&gt;VulnerabilityDatabase</title>
<path fill="none" stroke="#000000" d="M996.3416,-686.7681C1011.4603,-651.0501 1033.7799,-598.3199 1054.9274,-548.3589"/>
<polygon fill="#000000" stroke="#000000" points="1058.1856,-549.6404 1058.8605,-539.067 1051.7393,-546.9117 1058.1856,-549.6404"/>
<text text-anchor="middle" x="1079.5775" y="-561" font-family="Times,serif" font-size="14.00" fill="#000000">1..1 stores</text>
</g>
<!-- ContainerRuleRepository -->
<g id="node13" class="node">
<title>ContainerRuleRepository</title>
<polygon fill="none" stroke="#000000" points="8,-747.1 8,-769.1 240,-769.1 240,-747.1 8,-747.1"/>
<text text-anchor="start" x="10.6651" y="-754.5" font-family="Times,serif" font-weight="bold" font-size="14.00" fill="#000000">«repository» ContainerRuleRepository</text>
<polygon fill="none" stroke="#000000" points="8,-691.1 8,-747.1 240,-747.1 240,-691.1 8,-691.1"/>
<text text-anchor="start" x="11" y="-731.5" font-family="Times,serif" font-size="14.00" fill="#000000">+ findById(id: UUID)</text>
<text text-anchor="start" x="11" y="-714.7" font-family="Times,serif" font-size="14.00" fill="#000000">+ save(rule: ContainerScanRule)</text>
<text text-anchor="start" x="49.1024" y="-697.9" font-family="Times,serif" font-size="14.00" fill="#000000">+ delete(id: UUID)</text>
</g>
<!-- ContainerRuleRepository&#45;&gt;ContainerScanRule -->
<g id="edge12" class="edge">
<title>ContainerRuleRepository-&gt;ContainerScanRule</title>
<path fill="none" stroke="#000000" d="M155.5583,-686.7681C186.2351,-644.6464 234.1427,-578.8656 275.6534,-521.8682"/>
<polygon fill="#000000" stroke="#000000" points="278.6708,-523.6703 281.7287,-513.5263 273.0124,-519.5493 278.6708,-523.6703"/>
<text text-anchor="middle" x="285.7395" y="-561" font-family="Times,serif" font-size="14.00" fill="#000000">1..1 manages</text>
</g>
<!-- InformationSecurityEngineer -->
<g id="node15" class="node">
<title>InformationSecurityEngineer</title>
<polygon fill="none" stroke="#000000" points="1717,-416.8 1717,-438.8 1945,-438.8 1945,-416.8 1717,-416.8"/>
<text text-anchor="start" x="1719.6188" y="-424.2" font-family="Times,serif" font-weight="bold" font-size="14.00" fill="#000000">«entity» InformationSecurityEngineer</text>
<polygon fill="none" stroke="#000000" points="1717,-377.8 1717,-416.8 1945,-416.8 1945,-377.8 1717,-377.8"/>
<text text-anchor="start" x="1720" y="-401.2" font-family="Times,serif" font-size="14.00" fill="#000000">+ configureVulnerabilityDatabase()</text>
<text text-anchor="start" x="1758.479" y="-384.4" font-family="Times,serif" font-size="14.00" fill="#000000">+ manageScanRules()</text>
</g>
<!-- Person&#45;&gt;InformationSecurityEngineer -->
<g id="edge13" class="edge">
<title>Person-&gt;InformationSecurityEngineer</title>
<path fill="none" stroke="#000000" d="M1488.3653,-634.0318C1500.0133,-618.187 1513.5902,-603.1811 1529,-591.6 1536.9482,-585.6266 1691.4749,-543.9163 1700,-538.8 1738.1706,-515.8921 1773.495,-479.5581 1797.8194,-451.1188"/>
<polygon fill="#000000" stroke="#000000" points="1800.6185,-453.2286 1804.3817,-443.3246 1795.2637,-448.7201 1800.6185,-453.2286"/>
<text text-anchor="middle" x="1661.1329" y="-561" font-family="Times,serif" font-size="14.00" fill="#000000">0..1 role</text>
</g>
<!-- DevOpsEngineer -->
<g id="node16" class="node">
<title>DevOpsEngineer</title>
<polygon fill="none" stroke="#000000" points="1358,-425.8 1358,-447.8 1519,-447.8 1519,-425.8 1358,-425.8"/>
<text text-anchor="start" x="1360.9435" y="-433.2" font-family="Times,serif" font-weight="bold" font-size="14.00" fill="#000000">«entity» DevOpsEngineer</text>
<polygon fill="none" stroke="#000000" points="1358,-369.8 1358,-425.8 1519,-425.8 1519,-369.8 1358,-369.8"/>
<text text-anchor="start" x="1361" y="-410.2" font-family="Times,serif" font-size="14.00" fill="#000000">+ manageDeployment()</text>
<text text-anchor="start" x="1361" y="-393.4" font-family="Times,serif" font-size="14.00" fill="#000000">+ performContainerScan()</text>
<text text-anchor="start" x="1399.8745" y="-376.6" font-family="Times,serif" font-size="14.00" fill="#000000">+ setAlerts()</text>
</g>
<!-- Person&#45;&gt;DevOpsEngineer -->
<g id="edge14" class="edge">
<title>Person-&gt;DevOpsEngineer</title>
<path fill="none" stroke="#000000" d="M1438,-633.6994C1438,-577.5049 1438,-508.7532 1438,-462.1681"/>
<polygon fill="#000000" stroke="#000000" points="1441.5001,-461.9937 1438,-451.9938 1434.5001,-461.9938 1441.5001,-461.9937"/>
<text text-anchor="middle" x="1461.1329" y="-561" font-family="Times,serif" font-size="14.00" fill="#000000">0..1 role</text>
</g>
<!-- Developer -->
<g id="node17" class="node">
<title>Developer</title>
<polygon fill="none" stroke="#000000" points="1553,-416.8 1553,-438.8 1683,-438.8 1683,-416.8 1553,-416.8"/>
<text text-anchor="start" x="1559.4954" y="-424.2" font-family="Times,serif" font-weight="bold" font-size="14.00" fill="#000000">«entity» Developer</text>
<polygon fill="none" stroke="#000000" points="1553,-377.8 1553,-416.8 1683,-416.8 1683,-377.8 1553,-377.8"/>
<text text-anchor="start" x="1556" y="-401.2" font-family="Times,serif" font-size="14.00" fill="#000000">+ fixVulnerability()</text>
<text text-anchor="start" x="1555.9415" y="-384.4" font-family="Times,serif" font-size="14.00" fill="#000000">+ reviewScanReport()</text>
</g>
<!-- Person&#45;&gt;Developer -->
<g id="edge15" class="edge">
<title>Person-&gt;Developer</title>
<path fill="none" stroke="#000000" d="M1492.0059,-633.6994C1525.7907,-573.3935 1567.6774,-498.6258 1593.6231,-452.3127"/>
<polygon fill="#000000" stroke="#000000" points="1596.7585,-453.8771 1598.5926,-443.4422 1590.6515,-450.4558 1596.7585,-453.8771"/>
<text text-anchor="middle" x="1557.1329" y="-561" font-family="Times,serif" font-size="14.00" fill="#000000">0..1 role</text>
</g>
</g>
</svg>